<svg xmlns="http://www.w3.org/2000/svg" viewBox="0 0 1192 978.09"><defs><style>.cls-1{fill:#feece9;}.cls-2{fill:#f8d099;}.cls-3{fill:#808285;}.cls-4{fill:#d96c27;}.cls-5{fill:#f68d3a;}.cls-6{fill:#f9a54e;}.cls-7{fill:#a7a9ac;}.cls-8{fill:#faa951;}.cls-9{fill:#e2a55a;}.cls-10{fill:#202121;}.cls-11{fill:#f4ede2;}.cls-12{fill:#a79674;}.cls-13{fill:#e6dab9;}.cls-14{fill:#3b3d3d;}.cls-15{fill:#d8a75f;}.cls-16{fill:#997743;}.cls-17{fill:#43689d;}.cls-18{fill:#6c93c4;}.cls-19{fill:#233d5a;}.cls-20{fill:#415c8b;}.cls-21{fill:#5e81ab;}.cls-22{fill:#354b71;}.cls-23{fill:#557399;}.cls-24{fill:#4ca487;}.cls-25{fill:#3d856d;}.cls-26{fill:#ea475a;}.cls-27{fill:#eb5b72;}.cls-28{fill:#da2228;}.cls-29{fill:#e43145;}.cls-30{fill:#dc2428;}.cls-31{fill:#eb425d;}.cls-32{fill:#4aa488;}.cls-33{fill:#e5e4e4;}</style></defs><g id="Layer_2" data-name="Layer 2"><g id="Layer_1-2" data-name="Layer 1"><circle class="cls-1" cx="569.97" cy="472.54" r="472.54"/><path class="cls-1" d="M73.65,622.75a12.65,12.65,0,0,1,13-.5c5.42,3.17,4.26,9.61,7.48,19.45,6.15,18.85,18.63,20.52,18,32.91a19.83,19.83,0,0,1-9,15.46c-7.41,4.57-17.45,2.66-23.44-2s-7.07-13.64-9-31.41C68.55,637,67.62,627,73.65,622.75Z"/><path class="cls-1" d="M1086.28,268.84c-1-.59-14.57-8.2-28.4-1.47-15.32,7.45-16.74,25.56-16.81,26.84-1.27,20.61,18.38,43.07,36.66,40.38,14.81-2.17,21.74-19.82,22.25-21.17C1105.75,298.09,1101.17,277.53,1086.28,268.84Z"/><path class="cls-1" d="M1093.45,376.21c-8.15,15.73.33,28.59,3.9,52.31,5.38,35.78-4.84,67.06-11.85,88.49-8.71,26.66-24.33,44.79-18,51.1,3.14,3.16,9.79,1.58,12.26,1,11.78-2.8,18.42-13.6,22-19.57,22.41-37.6,33.71-56.37,36.89-67.79,5.24-18.79,13-48,3.5-81.54-2.34-8.24-11.17-39.41-27.11-40.41C1106,359.24,1097.51,368.37,1093.45,376.21Z"/><path class="cls-2" d="M604.48,450.29C553.31,475.75,501.7,464.52,498,463.64,408.36,442.8,374.71,348.39,371.92,340.12c-2.93-8.65-23.26-71.51,4.39-128.19,5.91-12.13,17.87-35.71,40.69-44h0a16.09,16.09,0,0,0-3.41,2.63c-25.47,25.88-36.58,63.75-38.07,69.06-18.74,66.92,17.52,122,28.3,138.4.16.23.31.46.46.7s.31.48.48.72c9.86,15.22,35.23,52.48,83.18,69.65l2.09.74,1.23.4a2,2,0,0,0,.26.09l.43.14,1.55.5c.93.29,1.88.58,2.84.86,1.67.49,3.37.95,5.08,1.39,10.41,2.64,65.1,15.33,116.05-17.11l.56-.37.62-.4.66-.43a6.46,6.46,0,0,1,.58-.38A147.6,147.6,0,0,0,646.45,413a8.75,8.75,0,0,0,1.94-3.18h0v0C645.63,428.89,612,446.53,604.48,450.29Z"/><path class="cls-3" d="M621.19,391h0Z"/><path class="cls-4" d="M648.81,406.63a.06.06,0,0,1,0,0c-1-10.77-12.25-15.11-35.84-32.56,0,0-30-22.17-52.78-46.59C542,308,547,303.9,515,245.27c-31.71-58.27-46.84-73.11-65.94-78.45a54.79,54.79,0,0,0-27.61-.75A16.26,16.26,0,0,0,417,167.9a16.09,16.09,0,0,0-3.41,2.63c-25.47,25.88-36.58,63.75-38.07,69.06-18.74,66.92,17.52,122,28.3,138.4.16.23.31.46.46.7s.31.48.48.72c10.44,15.8,35.77,52.62,83.18,69.65l2.09.74,1.23.4a2,2,0,0,0,.26.09l.43.14,1.55.5c.93.29,1.88.58,2.84.86,1.67.49,3.37.95,5.08,1.39,10.41,2.64,65.1,15.33,116.05-17.11l.56-.37.62-.4.66-.43a6.46,6.46,0,0,1,.58-.38A147.6,147.6,0,0,0,646.45,413a8.75,8.75,0,0,0,1.94-3.18h0A7.66,7.66,0,0,0,648.81,406.63ZM410.4,189.73c2.88-2.91,20.29-20.62,39-17.18,16.14,3,29,20.92,38,33.4,2.49,3.48,4.5,6.62,6.91,10.68,13.49,22.64,20.07,40.6,27,57.2,14.42,34.38,21.62,51.56,30.85,59.83,27,24.2,34.3,30.09,34.3,30.09,7.58,6.14,13.38,10.51,12.48,14.93-.81,3.92-6.47,6-25.45,10.49-19.77,4.68-29.65,7-35.21,7.47a132.14,132.14,0,0,1-53.23-7c-30.51-10.29-64.2-34.87-82.09-73.5S380.66,220,410.4,189.73Zm34.94,228.61c-.84-.64-1.66-1.29-2.46-1.94s-1.64-1.32-2.44-2c-.65-.55-1.29-1.09-1.92-1.64-.33-.27-.65-.55-1-.84-.58-.51-1.15-1-1.71-1.54h0c-.52-.47-1.05-.94-1.55-1.43q-1.95-1.8-3.78-3.65c-.67-.66-1.33-1.33-2-2-2.59-2.67-5-5.4-7.34-8.16-.43-.5-.85-1-1.26-1.52s-.66-.79-1-1.19c-.46-.55-.9-1.11-1.33-1.68s-.95-1.22-1.41-1.83-1.06-1.39-1.56-2.1-1.05-1.44-1.56-2.16-1-1.46-1.51-2.19-1-1.45-1.46-2.17-1-1.45-1.42-2.18-.84-1.34-1.26-2-.72-1.17-1.07-1.76-.64-1.05-.95-1.58-.61-1-.91-1.57c-.16-.27-.31-.55-.46-.81l-.77-1.36c-1.37-2.49-2.67-5-3.88-7.4-.29-.57-.56-1.14-.84-1.72-.67-1.41-1.32-2.79-1.94-4.18s-1.28-2.87-1.89-4.3c-.23-.55-.46-1.1-.68-1.65s-.47-1.09-.67-1.63c-.45-1.14-.89-2.26-1.31-3.36a1.83,1.83,0,0,1,3.39-1.37l.3.62c.32.64.63,1.28.95,1.93q.81,1.63,1.65,3.27c.34.67.69,1.34,1,2,.48.93,1,1.85,1.47,2.78.39.72.78,1.44,1.19,2.16q.75,1.35,1.53,2.7c.41.73.83,1.44,1.25,2.15l.59,1c1.08,1.81,2.18,3.63,3.35,5.43.37.6.76,1.2,1.16,1.81s.84,1.3,1.28,1.94.87,1.3,1.31,1.95.89,1.29,1.33,1.93c1.77,2.52,3.62,5,5.54,7.52.53.7,1.07,1.38,1.61,2.06s1.22,1.53,1.85,2.28l.61.75c.55.66,1.11,1.33,1.67,2,.71.83,1.42,1.66,2.15,2.47.16.2.32.38.49.56.56.64,1.14,1.27,1.71,1.9s1.26,1.36,1.9,2c.82.87,1.65,1.74,2.5,2.6h0c.85.86,1.71,1.72,2.58,2.57.4.4.81.79,1.22,1.18s.81.79,1.24,1.17c.75.71,1.5,1.4,2.27,2.09s1.37,1.24,2.07,1.85c.19.18.4.36.61.54l2,1.7c.79.68,1.6,1.34,2.41,2s1.64,1.33,2.48,2,1.68,1.31,2.53,1.94,1.63,1.22,2.46,1.83l.28.19c.82.6,1.64,1.17,2.47,1.75s1.56,1.08,2.35,1.6c38.52,25.77,79.52,30.11,79.26,31S488.8,451.77,445.34,418.34Zm163.72,17c-6.29,2.44-29.32,10.57-52.71,1.28-3.82-1.52-8.41-3.38-8.35-5.72.17-5.68,27.62-3.81,50.7-20.1.31-.21.62-.45.93-.67s.59-.43.87-.65c.61-.45,1.21-.91,1.77-1.39l1-.83c.36-.3.71-.61,1.05-.91,1-.91,2-1.82,3-2.74.21-.21.42-.41.61-.62s.42-.41.61-.61q.6-.61,1.17-1.23c1.39-1.48,2.65-3,3.79-4.39.54-.69,1.07-1.39,1.57-2.06q.39-.51.75-1c.45-.62.86-1.21,1.26-1.8a1.78,1.78,0,0,1,1.39-.79c.86,0,1.7-.05,2.54,0a.12.12,0,0,1,.08,0h.17c.4,0,.8,0,1.18.08l1.07.11.28.05a7,7,0,0,1,.8.13,1.7,1.7,0,0,1,.31.06c.32,0,.64.12,1,.2a6,6,0,0,1,.61.15c.34.08.66.18,1,.28l.43.13a16,16,0,0,1,9.35,7.37c2.91,5.45,1,11.37.46,13.23C633.59,425.76,618.94,431.44,609.06,435.3Z"/><path class="cls-5" d="M599,378.68c.9-4.42-4.9-8.79-12.48-14.93,0,0-7.27-5.89-34.3-30.09-9.23-8.27-16.43-25.45-30.85-59.83-7-16.6-13.53-34.56-27-57.2-2.41-4.06-4.42-7.2-6.91-10.68-9-12.48-21.86-30.43-38-33.4-18.71-3.44-36.12,14.27-39,17.18C380.66,220,385.16,277.61,403,316.14s51.58,63.21,82.09,73.5a132.14,132.14,0,0,0,53.23,7c5.56-.46,15.44-2.79,35.21-7.47C592.49,384.68,598.15,382.6,599,378.68Zm-62.24-48.16c-1.7-1.12-3.38-2.26-5-3.39-1-.69-2-1.39-3-2.08s-1.75-1.24-2.6-1.86l-2.54-1.85-2.43-1.81c-1-.73-1.93-1.47-2.86-2.21-.66-.51-1.33-1-2-1.54l-2-1.6c-.16-.14-.33-.27-.5-.4-1.44-1.17-2.86-2.35-4.23-3.51l-2.15-1.82-1.74-1.5q-4.32-3.78-8.15-7.43c-1.23-1.17-2.42-2.31-3.57-3.45q-4.35-4.29-8.06-8.29l-1.47-1.59c-2.4-2.63-4.59-5.13-6.6-7.51-22.1-26.13-23.36-38.11-21.24-46.16s9.21-18.19,17.78-18.58c4.57-.21,8.64,2.4,13.42,7.08,11.49,11.22,15.86,23.27,21.46,37.54,0,0,8.68,22.09,20.73,49.07,1.93,4.31,3.77,8.3,5.47,11.92l.83,1.76c.39.82.77,1.61,1.15,2.38s.72,1.52,1.08,2.26l1,2.11a1.93,1.93,0,0,1-2.77,2.47Z"/><path class="cls-6" d="M536.75,330.53h0c-1.7-1.12-3.38-2.26-5-3.39-1-.69-2-1.39-3-2.08s-1.75-1.24-2.6-1.86l-2.54-1.85-2.43-1.81c-1-.73-1.93-1.47-2.86-2.21-.66-.51-1.33-1-2-1.54l-2-1.6c-.16-.14-.33-.27-.5-.4-1.44-1.17-2.86-2.35-4.23-3.51l-2.15-1.82-1.74-1.5q-4.32-3.78-8.15-7.43c-1.23-1.17-2.42-2.31-3.57-3.45q-4.35-4.29-8.06-8.29l-1.47-1.59c-2.4-2.63-4.59-5.13-6.6-7.51-22.1-26.13-23.36-38.11-21.24-46.16s9.21-18.19,17.78-18.58c4.57-.21,8.64,2.4,13.42,7.08,11.49,11.22,15.86,23.27,21.46,37.54,0,0,8.68,22.09,20.73,49.07,1.93,4.31,3.77,8.3,5.47,11.92.28.6.55,1.19.83,1.76.39.82.77,1.61,1.15,2.38s.72,1.52,1.08,2.26l1,2.11A1.93,1.93,0,0,1,536.75,330.53Z"/><path class="cls-7" d="M621.25,391.05h0Z"/><path class="cls-8" d="M609.06,435.3c-6.29,2.44-29.32,10.57-52.71,1.28-3.82-1.52-8.41-3.38-8.35-5.72.17-5.68,27.62-3.81,50.7-20.1.31-.21.62-.45.93-.67s.59-.43.87-.65c.61-.45,1.21-.91,1.77-1.39l1-.83c.37-.3.72-.6,1.05-.91,1-.91,2-1.82,3-2.74.21-.21.42-.41.61-.62s.42-.41.61-.61q.62-.6,1.17-1.23c1.39-1.48,2.65-3,3.79-4.39.54-.69,1.08-1.39,1.57-2.06q.39-.51.75-1A6.31,6.31,0,0,1,621,391a.12.12,0,0,1,.08,0h.17c.39,0,.8,0,1.18.08l1.07.11.28.05a7,7,0,0,1,.8.13,1.7,1.7,0,0,1,.31.06c.32,0,.64.12,1,.2a6,6,0,0,1,.61.15l1,.28.43.13a16,16,0,0,1,9.35,7.37c2.91,5.45,1,11.37.46,13.23C633.59,425.76,618.94,431.44,609.06,435.3Z"/><path class="cls-9" d="M540.16,452.67c-.29,1-51.36-.9-94.82-34.33-.84-.64-1.66-1.29-2.46-1.94s-1.64-1.32-2.44-2c-.65-.55-1.29-1.09-1.92-1.64-.33-.27-.65-.55-1-.84-.58-.51-1.15-1-1.71-1.54h0L434.28,409q-1.95-1.8-3.78-3.65c-.67-.66-1.33-1.33-2-2-2.59-2.67-5-5.4-7.34-8.16-.43-.5-.85-1-1.26-1.52s-.66-.79-1-1.19c-.46-.55-.9-1.11-1.33-1.68s-.95-1.22-1.41-1.83-1.06-1.39-1.56-2.1-1.05-1.44-1.56-2.16-1-1.46-1.51-2.19-1-1.45-1.46-2.17-1-1.45-1.42-2.18-.84-1.34-1.26-2-.72-1.17-1.07-1.76-.64-1.05-.95-1.58-.61-1-.91-1.57c-.16-.27-.31-.55-.46-.81l-.77-1.36c-1.37-2.49-2.67-5-3.88-7.4-.29-.57-.56-1.14-.84-1.72-.67-1.41-1.32-2.79-1.94-4.18s-1.28-2.87-1.89-4.3c-.23-.55-.46-1.1-.68-1.65s-.46-1.09-.67-1.63c-.45-1.14-.89-2.26-1.31-3.36a1.83,1.83,0,0,1,3.39-1.37l.3.62c.32.64.63,1.28.95,1.93q.81,1.63,1.65,3.27c.34.67.69,1.34,1,2,.48.93,1,1.85,1.47,2.78.39.72.78,1.44,1.19,2.16q.75,1.35,1.53,2.7c.41.73.83,1.44,1.25,2.15l.59,1c1.08,1.81,2.18,3.63,3.35,5.43.37.6.76,1.2,1.16,1.81s.84,1.3,1.28,1.94.87,1.3,1.31,1.95.89,1.29,1.33,1.93c1.77,2.52,3.62,5,5.54,7.52.53.7,1.07,1.38,1.61,2.06s1.22,1.53,1.85,2.28l.61.75c.55.66,1.11,1.33,1.67,2,.71.83,1.42,1.66,2.15,2.47.16.2.32.38.49.56.56.64,1.14,1.27,1.71,1.9s1.26,1.37,1.9,2c.82.88,1.65,1.75,2.5,2.6h0c.85.86,1.71,1.72,2.58,2.57.4.4.81.79,1.22,1.18s.81.79,1.24,1.17c.75.71,1.5,1.4,2.27,2.09s1.37,1.24,2.07,1.85c.19.18.4.36.61.54.66.57,1.32,1.15,2,1.7s1.6,1.34,2.41,2,1.64,1.33,2.48,2,1.68,1.31,2.53,1.94,1.63,1.22,2.46,1.83l.28.19c.82.6,1.64,1.18,2.47,1.75s1.56,1.08,2.35,1.6C499.42,447.41,540.42,451.75,540.16,452.67Z"/><path class="cls-10" d="M707.44,679.87c-22.67,32.89-69.5,55.12-118.35,62.64-41,9.44-108.13,2.87-179.79-20.35s-129.92-57.3-157.58-89c-35.13-34.75-60-80.21-59.1-120.13,2.82,20.12,22.1,43.63,53.36,67.27,42.17,31.89,106.12,64,180.72,88.15s145.22,35.68,198.07,34.58C664,702.24,693.37,694.51,707.44,679.87Z"/><path class="cls-11" d="M684.55,603.58l-2-1.83c-1.62-1.47-3.26-3-5-4.43-41.12-35.68-111.56-72.88-195.44-100.06s-162.75-38.35-217-33.56h0l-1.74.16-1.6.16c-34.16,3.48-58,13.55-66.34,30.14a31,31,0,0,0-1.75,4.26,32.8,32.8,0,0,0-1.14,14.65c2.81,20.11,22.1,43.63,53.36,67.27,42.17,31.89,106.12,64,180.72,88.15s145.21,35.69,198.07,34.57c39.18-.81,68.59-8.53,82.66-23.17a30.83,30.83,0,0,0,8.76-17C719,645.59,707.29,625,684.55,603.58Zm26.56,60.19c-5.43,16.74-27,26.92-59.34,30.63-7.52.3-15.58.25-24.16-.1-1.9-.07-3.84-.16-5.8-.26-51.17-2.83-120.88-12.39-192.72-35.68-69.6-22.54-128.51-53.85-171.33-81q-2.07-1.3-4.09-2.61l-4.85-3.17q-10.66-7.1-19.5-14c-24.14-22-35.65-42.94-30.22-59.7,5.63-17.36,28.58-27.67,63-31l1.67-.14,1.69-.15c53-4.35,131.6,7.19,215.54,34.39s154.39,63.94,194.76,98.55c1.73,1.48,3.39,3,5,4.42.64.57,1.26,1.16,1.87,1.73C705.58,627.1,716.42,647.41,711.11,663.77Z"/><path class="cls-12" d="M711.11,663.77c-5.43,16.74-27,26.92-59.34,30.63-7.52.3-15.58.25-24.16-.1-1.9-.07-3.84-.16-5.8-.26-17.12-42.2-81.37-89.11-165.67-116.42s-163.85-27-202.47-2.87l-4.85-3.17q-10.66-7.1-19.5-14c-24.14-22-35.65-42.94-30.22-59.7,5.63-17.36,28.58-27.67,63-31l1.67-.14,1.69-.15c53-4.35,131.6,7.19,215.54,34.39s154.39,63.94,194.76,98.55c1.73,1.48,3.39,3,5,4.42.64.57,1.26,1.16,1.87,1.73C705.58,627.1,716.42,647.41,711.11,663.77Z"/><path class="cls-10" d="M775.61,715.48c-1.64,6.07,0,12.44,3.92,18l-89.79-24.31c-11.57-3.14-19-12.72-16.69-21.42,1.18-4.35,4.58-7.66,9.15-9.47a25.69,25.69,0,0,1,16.07-.6l89.78,24.3C781.86,704.71,777.26,709.4,775.61,715.48Z"/><path class="cls-13" d="M621.81,694c-51.17-2.83-120.88-12.39-192.72-35.68-69.6-22.54-128.51-53.85-171.33-81q-2.07-1.3-4.09-2.61c38.62-24.13,118.16-24.45,202.47,2.87S604.69,651.84,621.81,694Z"/><path class="cls-14" d="M204.55,551.3a255.76,255.76,0,0,0,53,79.35c24.43,24.78,46.73,37.07,76.92,53.71,31,17.1,51.43,23.6,53.36,20.44,1.46-2.4-9.11-8.11-8.32-17.32.81-9.4,12.71-14,11.09-20.79-.66-2.79-3.27-4.54-5.2-5.55A550.94,550.94,0,0,1,204.55,551.3Z"/><path class="cls-14" d="M686.88,687.82c-1.87-.45-6.38-1.48-7.62.35-1.07,1.57.74,4.5,1.38,5.54,5.11,8.3,62.79,21.66,90.44,27.72,3.42.84,6.64-.39,7.62-2.42,1.25-2.57-.66-7.23-5.54-8.66C728.35,698.46,695.33,689.85,686.88,687.82Z"/><path class="cls-15" d="M926.57,780.42A42.24,42.24,0,0,1,918.2,779l-118-31.94c-9-2.43-16.32-7.52-20.72-13.66-4-5.52-5.56-11.89-3.92-18s6.25-10.77,12.44-13.54c.35-.16.71-.31,1.06-.45a38,38,0,0,1,23.72-.88l118,31.94a41.71,41.71,0,0,1,7.89,3,12.37,12.37,0,0,0-1.36,0,17.56,17.56,0,0,0-4.2-1.75,18.22,18.22,0,0,0-3.16-.56c-9.91-.85-19.67,6.59-22.74,17.92s1.62,22.71,10.63,26.95a17.68,17.68,0,0,0,3,1.1,17.94,17.94,0,0,0,4.51.61C925.74,780,926.15,780.22,926.57,780.42Z"/><path class="cls-16" d="M946.73,761.8c-2.93,10.81-12,18.08-21.39,18a17.94,17.94,0,0,1-4.51-.61,17.68,17.68,0,0,1-3-1.1c-9-4.24-13.7-15.61-10.63-26.95s12.83-18.77,22.74-17.92a18.22,18.22,0,0,1,3.16.56,17.56,17.56,0,0,1,4.2,1.75C945.51,740.16,949.65,751,946.73,761.8Z"/><circle class="cls-17" cx="779.07" cy="898.37" r="41.14"/><circle class="cls-18" cx="792.71" cy="902.49" r="22.58"/><polygon class="cls-19" points="792.71 892.8 802.4 885.7 801.1 897.64 812.09 902.49 801.1 907.33 802.4 919.27 792.71 912.18 783.02 919.27 784.32 907.33 773.33 902.49 784.32 897.64 783.02 885.7 792.71 892.8"/><circle class="cls-20" cx="812.09" cy="539" r="19.98"/><circle class="cls-18" cx="811.22" cy="545.87" r="10.97"/><polygon class="cls-19" points="815.87 545.08 820.05 549.15 814.23 549.49 812.8 555.15 809.59 550.28 803.97 551.87 806.58 546.65 802.4 542.59 808.22 542.24 809.65 536.59 812.86 541.46 818.48 539.86 815.87 545.08"/><circle class="cls-20" cx="1146.57" cy="311.25" r="45.42"/><circle class="cls-21" cx="1149.95" cy="293.86" r="23.83"/><polygon class="cls-19" points="1147.74 299.25 1136.14 304.36 1140.2 292.35 1129.97 284.86 1142.4 282.37 1143.78 269.77 1152.15 279.28 1163.75 274.18 1159.7 286.18 1169.92 293.68 1157.49 296.17 1156.12 308.77 1147.74 299.25"/><circle class="cls-22" cx="390.22" cy="792.85" r="33.08"/><circle class="cls-23" cx="384.25" cy="800.2" r="17.36"/><polygon class="cls-19" points="384.25 792.76 391.7 787.3 390.7 796.48 399.14 800.2 390.7 803.93 391.7 813.1 384.25 807.65 376.8 813.1 377.8 803.93 369.35 800.2 377.8 796.48 376.8 787.3 384.25 792.76"/><path class="cls-21" d="M181,723.42,187.1,720l-5-2.23,4.09-3.6s-5.46-2.52-5.22-2.68,3.59-3.16,3.59-3.16l-10.44-1.12Z"/><circle class="cls-17" cx="165.31" cy="720.32" r="17.02"/><path class="cls-24" d="M630.12,897.35A87.11,87.11,0,0,1,583.46,903L594,919a49.85,49.85,0,0,0,20.73-7.13A53.33,53.33,0,0,0,630.12,897.35Z"/><path class="cls-24" d="M631,882.14a96.63,96.63,0,0,1-22.89,12.35,93.7,93.7,0,0,1-24.68,5.66l14.69,14.06a55.25,55.25,0,0,0,20.07-12.84A59.4,59.4,0,0,0,631,882.14Z"/><path class="cls-25" d="M607.38,875.63A65,65,0,0,0,607,907l-10.13-6a36.56,36.56,0,0,1,2.92-14.23A34.57,34.57,0,0,1,607.38,875.63Z"/><path class="cls-25" d="M637.79,896.49a99.67,99.67,0,0,1-26.27,6.92,98,98,0,0,1-26.6-.4l11.86,18.15a56.6,56.6,0,0,0,23.5-8.14A60.7,60.7,0,0,0,637.79,896.49Z"/><path class="cls-24" d="M594.18,860.93a103.35,103.35,0,0,0,2.09,25.23,102.09,102.09,0,0,0,8,23.44l-17.68-5.37a58.36,58.36,0,0,1-.34-23.12A56.82,56.82,0,0,1,594.18,860.93Z"/><path class="cls-25" d="M594,866a92.74,92.74,0,0,0,1.82,22.52,90.35,90.35,0,0,0,7,20.9l-15.76-4.75a52.24,52.24,0,0,1-.25-20.63A51.05,51.05,0,0,1,594,866Z"/><ellipse class="cls-26" cx="579.17" cy="967.1" rx="10.36" ry="10.99"/><ellipse class="cls-27" cx="551.67" cy="907.46" rx="10.36" ry="10.99"/><ellipse class="cls-28" cx="561.44" cy="914.88" rx="10.36" ry="10.99"/><ellipse class="cls-28" cx="571.46" cy="962.55" rx="10.36" ry="10.99"/><ellipse class="cls-28" cx="594.57" cy="960.6" rx="10.36" ry="10.99"/><ellipse class="cls-29" cx="564.34" cy="957.14" rx="10.36" ry="10.99"/><ellipse class="cls-29" cx="584.21" cy="951.18" rx="10.36" ry="10.99"/><ellipse class="cls-27" cx="550.08" cy="946.32" rx="10.36" ry="10.99"/><ellipse class="cls-29" cx="550.69" cy="926.53" rx="10.36" ry="10.99"/><ellipse class="cls-28" cx="561.75" cy="934.92" rx="10.36" ry="10.99"/><ellipse class="cls-30" cx="557.21" cy="951.73" rx="10.36" ry="10.99"/><ellipse class="cls-31" cx="573.15" cy="942.79" rx="10.36" ry="10.99"/><ellipse class="cls-31" cx="610.31" cy="951.96" rx="10.36" ry="10.99"/><ellipse class="cls-29" cx="601.23" cy="943.52" rx="10.36" ry="10.99"/><ellipse class="cls-27" cx="571.56" cy="921.78" rx="10.36" ry="10.99"/><ellipse class="cls-28" cx="581.34" cy="929.2" rx="10.36" ry="10.99"/><ellipse class="cls-31" cx="591.46" cy="936.1" rx="10.36" ry="10.99"/><ellipse class="cls-29" cx="563.76" cy="895.1" rx="10.87" ry="9.85" transform="translate(-462.79 1150.49) rotate(-71.77)"/><ellipse class="cls-27" cx="571.5" cy="890.93" rx="10.87" ry="9.85" transform="translate(-453.52 1154.97) rotate(-71.77)"/><ellipse class="cls-28" cx="572.95" cy="902.07" rx="10.87" ry="9.85" transform="translate(-463.1 1164) rotate(-71.77)"/><ellipse class="cls-28" cx="618.89" cy="936.93" rx="10.87" ry="9.85" transform="translate(-464.64 1231.58) rotate(-71.77)"/><ellipse class="cls-29" cx="610.39" cy="928.93" rx="10.87" ry="9.85" transform="translate(-462.88 1218.02) rotate(-71.77)"/><ellipse class="cls-29" cx="582.49" cy="908.53" rx="10.87" ry="9.85" transform="translate(-462.68 1177.49) rotate(-71.77)"/><ellipse class="cls-28" cx="591.67" cy="915.5" rx="10.87" ry="9.85" transform="translate(-462.99 1191.01) rotate(-71.77)"/><ellipse class="cls-27" cx="601.21" cy="921.96" rx="10.87" ry="9.85" transform="translate(-462.57 1204.5) rotate(-71.77)"/><ellipse class="cls-27" cx="580.96" cy="888.96" rx="10.87" ry="9.85" transform="translate(-445.14 1162.59) rotate(-71.77)"/><ellipse class="cls-31" cx="619.86" cy="917.18" rx="10.87" ry="9.85" transform="translate(-445.21 1218.94) rotate(-71.77)"/><ellipse class="cls-30" cx="607.24" cy="907.6" rx="10.87" ry="9.85" transform="translate(-444.79 1200.37) rotate(-71.77)"/><ellipse class="cls-31" cx="593.82" cy="897.42" rx="10.87" ry="9.85" transform="translate(-444.34 1180.63) rotate(-71.77)"/><path class="cls-24" d="M28.42,532.56a76.77,76.77,0,0,1,.42,18,74.14,74.14,0,0,1-3.73,17.15l11.71-5a42.91,42.91,0,0,0-1.46-16.42A41.38,41.38,0,0,0,28.42,532.56Z"/><path class="cls-24" d="M18.91,529.29a82.23,82.23,0,0,1,4.45,18.89,81.89,81.89,0,0,1-.06,19.08l11.09-8.37A46.08,46.08,0,0,0,29.21,542,42.59,42.59,0,0,0,18.91,529.29Z"/><path class="cls-25" d="M11.28,545.52a38.74,38.74,0,0,0,9.7,4.25,37,37,0,0,0,10.14,1.41l-5.29,6.4A22.23,22.23,0,0,1,17.24,553,25,25,0,0,1,11.28,545.52Z"/><path class="cls-25" d="M29,526.78a86.83,86.83,0,0,1,.51,20.46,84,84,0,0,1-4.19,19.44l13.27-5.6a49.14,49.14,0,0,0-1.69-18.63A47.82,47.82,0,0,0,29,526.78Z"/><path class="cls-24" d="M0,552.69a58.9,58.9,0,0,0,16.32,2.78,57.31,57.31,0,0,0,16-1.83q-3,6-6,12.06A33.62,33.62,0,0,1,11.63,562,37.6,37.6,0,0,1,0,552.69Z"/><path class="cls-25" d="M3.19,553.69a52.91,52.91,0,0,0,14.56,2.51,51.53,51.53,0,0,0,14.3-1.59l-5.34,10.74A30,30,0,0,1,13.58,562,33.84,33.84,0,0,1,3.19,553.69Z"/><ellipse class="cls-26" cx="65.14" cy="581.85" rx="7.12" ry="7.84" transform="translate(-79.58 14.53) rotate(-7.92)"/><ellipse class="cls-27" cx="23.24" cy="591.83" rx="7.12" ry="7.84" transform="translate(-81.35 8.85) rotate(-7.92)"/><ellipse class="cls-28" cx="29.39" cy="585.93" rx="7.12" ry="7.84" transform="translate(-80.48 9.64) rotate(-7.92)"/><ellipse class="cls-28" cx="61.11" cy="586.73" rx="7.12" ry="7.84" transform="translate(-80.29 14.02) rotate(-7.92)"/><ellipse class="cls-28" cx="63.29" cy="569.44" rx="7.12" ry="7.84" transform="translate(-77.88 14.16) rotate(-7.92)"/><ellipse class="cls-29" cx="56.63" cy="591.03" rx="7.12" ry="7.84" transform="translate(-80.92 13.45) rotate(-7.92)"/><ellipse class="cls-29" cx="55.78" cy="575.43" rx="7.12" ry="7.84" transform="translate(-78.78 13.18) rotate(-7.92)"/><ellipse class="cls-27" cx="47.66" cy="599.64" rx="7.12" ry="7.84" transform="translate(-82.2 12.29) rotate(-7.92)"/><ellipse class="cls-29" cx="35.19" cy="595.8" rx="7.12" ry="7.84" transform="translate(-81.79 10.54) rotate(-7.92)"/><ellipse class="cls-28" cx="42.14" cy="589.13" rx="7.12" ry="7.84" transform="translate(-80.8 11.43) rotate(-7.92)"/><ellipse class="cls-30" cx="52.14" cy="595.33" rx="7.12" ry="7.84" transform="translate(-81.56 12.87) rotate(-7.92)"/><ellipse class="cls-31" cx="48.83" cy="582.11" rx="7.12" ry="7.84" transform="translate(-79.77 12.29) rotate(-7.92)"/><ellipse class="cls-31" cx="60.14" cy="556.42" rx="7.12" ry="7.84" transform="translate(-76.12 13.6) rotate(-7.92)"/><ellipse class="cls-29" cx="53.44" cy="561.64" rx="7.12" ry="7.84" transform="translate(-76.9 12.73) rotate(-7.92)"/><ellipse class="cls-27" cx="35.26" cy="579.68" rx="7.12" ry="7.84" transform="matrix(0.99, -0.14, 0.14, 0.99, -79.56, 10.39)"/><ellipse class="cls-28" cx="41.41" cy="573.78" rx="7.12" ry="7.84" transform="translate(-78.69 11.18) rotate(-7.92)"/><ellipse class="cls-31" cx="47.29" cy="567.54" rx="7.12" ry="7.84" transform="matrix(0.99, -0.14, 0.14, 0.99, -77.77, 11.93)"/><ellipse class="cls-29" cx="17.18" cy="580.84" rx="6.78" ry="7.74" transform="translate(-202.75 42.97) rotate(-20.54)"/><ellipse class="cls-27" cx="15.68" cy="574.46" rx="6.78" ry="7.74" transform="translate(-200.6 42.04) rotate(-20.54)"/><ellipse class="cls-28" cx="22.96" cy="575.3" rx="6.78" ry="7.74" transform="translate(-200.43 44.65) rotate(-20.54)"/><ellipse class="cls-28" cx="51.87" cy="547.56" rx="6.78" ry="7.74" transform="translate(-188.86 53.03) rotate(-20.54)"/><ellipse class="cls-29" cx="45.54" cy="552.42" rx="6.78" ry="7.74" transform="translate(-190.97 51.12) rotate(-20.54)"/><ellipse class="cls-29" cx="28.47" cy="569.41" rx="6.78" ry="7.74" transform="translate(-198.02 46.21) rotate(-20.54)"/><ellipse class="cls-28" cx="34.25" cy="563.86" rx="6.78" ry="7.74" transform="translate(-195.7 47.88) rotate(-20.54)"/><ellipse class="cls-27" cx="39.76" cy="557.97" rx="6.78" ry="7.74" transform="translate(-193.29 49.44) rotate(-20.54)"/><ellipse class="cls-27" cx="15.83" cy="567.18" rx="6.78" ry="7.74" transform="translate(-198.04 41.63) rotate(-20.54)"/><ellipse class="cls-31" cx="39.49" cy="543.47" rx="6.78" ry="7.74" transform="translate(-188.21 48.42) rotate(-20.54)"/><ellipse class="cls-30" cx="31.54" cy="551.09" rx="6.78" ry="7.74" transform="matrix(0.94, -0.35, 0.35, 0.94, -191.39, 46.12)"/><ellipse class="cls-31" cx="23.1" cy="559.19" rx="6.78" ry="7.74" transform="translate(-194.77 43.67) rotate(-20.54)"/><path class="cls-24" d="M1010.44,626.14a54.8,54.8,0,0,1-7.88,28.51l11.84-2.28a31.3,31.3,0,0,0,.81-13.77A33.63,33.63,0,0,0,1010.44,626.14Z"/><path class="cls-24" d="M1001.81,622a61.43,61.43,0,0,1,1.71,16.28,59.4,59.4,0,0,1-2.61,15.72l11.69-5.19a34.58,34.58,0,0,0-2.67-14.75A37.51,37.51,0,0,0,1001.81,622Z"/><path class="cls-25" d="M992.36,634.18a41.15,41.15,0,0,0,8.68,5,41.62,41.62,0,0,0,9.47,2.73l-5.89,4.46a23.22,23.22,0,0,1-7.59-5.1A21.75,21.75,0,0,1,992.36,634.18Z"/><path class="cls-25" d="M1011.77,621.47a62.52,62.52,0,0,1-2.25,16.95,61.88,61.88,0,0,1-6.6,15.38l13.4-2.56a35.49,35.49,0,0,0,.88-15.62A38.06,38.06,0,0,0,1011.77,621.47Z"/><path class="cls-24" d="M980.64,638.34a64.7,64.7,0,0,0,15.19,4.82,63.72,63.72,0,0,0,15.54,1l-7.35,9a36.7,36.7,0,0,1-13.54-5.33A36,36,0,0,1,980.64,638.34Z"/><path class="cls-25" d="M983.55,639.66A58.68,58.68,0,0,0,997.09,644a57.5,57.5,0,0,0,13.86.9l-6.54,8a32.66,32.66,0,0,1-12.07-4.79A32.06,32.06,0,0,1,983.55,639.66Z"/><ellipse class="cls-26" cx="1038.84" cy="672.48" rx="6.52" ry="6.91" transform="translate(21.92 1377.65) rotate(-67.66)"/><ellipse class="cls-27" cx="997.56" cy="674.22" rx="6.52" ry="6.91" transform="translate(-5.29 1340.55) rotate(-67.66)"/><ellipse class="cls-28" cx="1004.21" cy="670.3" rx="6.52" ry="6.91" transform="translate(2.46 1344.28) rotate(-67.66)"/><ellipse class="cls-27" cx="1034.35" cy="675.87" rx="6.52" ry="6.91" transform="translate(15.99 1375.61) rotate(-67.66)"/><ellipse class="cls-28" cx="1038.74" cy="661.96" rx="6.52" ry="6.91" transform="translate(31.58 1371.04) rotate(-67.66)"/><ellipse class="cls-29" cx="1029.5" cy="678.73" rx="6.52" ry="6.91" transform="translate(10.34 1372.89) rotate(-67.66)"/><ellipse class="cls-29" cx="1030.78" cy="665.73" rx="6.52" ry="6.91" transform="translate(23.16 1366.02) rotate(-67.66)"/><ellipse class="cls-27" cx="1019.79" cy="684.44" rx="6.52" ry="6.91" transform="translate(-0.95 1367.45) rotate(-67.66)"/><ellipse class="cls-29" cx="1008.42" cy="679.34" rx="6.52" ry="6.91" transform="translate(-3.29 1353.77) rotate(-67.66)"/><ellipse class="cls-28" cx="1015.94" cy="674.92" rx="6.52" ry="6.91" transform="translate(5.47 1357.99) rotate(-67.66)"/><ellipse class="cls-30" cx="1024.65" cy="681.58" rx="6.52" ry="6.91" transform="translate(4.69 1370.17) rotate(-67.66)"/><ellipse class="cls-31" cx="1023.26" cy="670.16" rx="6.52" ry="6.91" transform="translate(14.39 1361.8) rotate(-67.66)"/><ellipse class="cls-31" cx="1037.48" cy="650.73" rx="6.52" ry="6.91" transform="translate(41.18 1362.92) rotate(-67.66)"/><ellipse class="cls-29" cx="1030.4" cy="654" rx="6.52" ry="6.91" transform="translate(33.77 1358.39) rotate(-67.66)"/><ellipse class="cls-27" cx="1010.65" cy="666.06" rx="6.52" ry="6.91" transform="translate(10.37 1347.6) rotate(-67.66)"/><ellipse class="cls-28" cx="1017.3" cy="662.15" rx="6.52" ry="6.91" transform="translate(18.12 1351.33) rotate(-67.66)"/><ellipse class="cls-27" cx="1023.74" cy="657.91" rx="6.52" ry="6.91" transform="translate(26.03 1354.66) rotate(-67.66)"/><ellipse class="cls-29" cx="993.26" cy="664.22" rx="6.19" ry="6.84" transform="translate(-157.33 986.55) rotate(-49.42)"/><ellipse class="cls-27" cx="992.68" cy="658.72" rx="6.19" ry="6.84" transform="translate(-153.36 984.19) rotate(-49.42)"/><ellipse class="cls-27" cx="999.51" cy="660.54" rx="6.19" ry="6.84" transform="translate(-152.35 990.01) rotate(-49.42)"/><ellipse class="cls-28" cx="1030.78" cy="642.15" rx="6.19" ry="6.84" transform="translate(-127.45 1007.33) rotate(-49.42)"/><ellipse class="cls-29" cx="1024.1" cy="645.17" rx="6.19" ry="6.84" transform="translate(-132.09 1003.31) rotate(-49.42)"/><ellipse class="cls-29" cx="1005.55" cy="656.54" rx="6.19" ry="6.84" transform="translate(-147.2 993.2) rotate(-49.42)"/><ellipse class="cls-28" cx="1011.8" cy="652.86" rx="6.19" ry="6.84" transform="translate(-142.22 996.66) rotate(-49.42)"/><ellipse class="cls-27" cx="1017.84" cy="648.85" rx="6.19" ry="6.84" transform="matrix(0.65, -0.76, 0.76, 0.65, -137.07, 999.85)"/><ellipse class="cls-27" cx="993.79" cy="652.74" rx="6.19" ry="6.84" transform="translate(-148.43 982.94) rotate(-49.42)"/><ellipse class="cls-31" cx="1019.53" cy="636.85" rx="6.19" ry="6.84" transform="translate(-127.36 996.93) rotate(-49.42)"/><ellipse class="cls-27" cx="1010.93" cy="641.91" rx="6.19" ry="6.84" transform="translate(-134.21 992.17) rotate(-49.42)"/><ellipse class="cls-31" cx="1001.8" cy="647.28" rx="6.19" ry="6.84" transform="translate(-141.48 987.11) rotate(-49.42)"/><ellipse class="cls-29" cx="1031.34" cy="683.2" rx="6.52" ry="6.91" transform="translate(7.35 1377.36) rotate(-67.66)"/><ellipse class="cls-29" cx="1040.38" cy="683.2" rx="6.52" ry="6.91" transform="translate(12.95 1385.72) rotate(-67.66)"/><path class="cls-32" d="M231.48,866c-6.64,3.32-16.85-5.19-20.77-8.46a52.37,52.37,0,0,1-12-14.45,3,3,0,0,1,1.33-1.81c3.21-1.71,9,5.94,10.86,4.85,2.48-1.47-7.31-15.52-3.27-30,.62-2.25,2-7.24,4.85-7.73,5.13-.88,11.91,13.49,17.05,26.49-.06-8.15.76-9.76,1.45-9.88,2.48-.43,10.47,17,5.64,32.77C235.61,861,234.52,864.44,231.48,866Z"/><path class="cls-24" d="M194.09,851.05a109.83,109.83,0,0,0,54,14.37l-15,16a61.72,61.72,0,0,1-39-30.34Z"/><path class="cls-29" d="M224.47,851.2c-10.37,9.51-17.89,16.39-18.8,26.72-2.54,28.73,49.26,48,54.74,50,14.92,5.54,21.07,4,24.73,2,9.53-5.38,10.65-19.26,11.37-28.23,0,0,2.92-36.26-27.55-66.64a9.81,9.81,0,0,0-1.38-1.17C257.58,826.87,236,840.66,224.47,851.2Z"/><path class="cls-33" d="M210.28,876.87c-.45.07-.79.84-.69,1.42.15.88,1.32,1.65,2.84,1.39C211.37,877.32,210.71,876.8,210.28,876.87Z"/><path class="cls-33" d="M215.29,870.36c-.45.07-.78.84-.69,1.42.15.88,1.32,1.65,2.85,1.39C216.38,870.81,215.72,870.29,215.29,870.36Z"/><path class="cls-33" d="M221.12,862.66c-.46.07-.79.84-.7,1.42.15.88,1.32,1.65,2.85,1.39C222.2,863.11,221.54,862.59,221.12,862.66Z"/><path class="cls-33" d="M231.05,853.11c-.45.08-.78.84-.69,1.42.15.88,1.32,1.65,2.85,1.39C232.14,853.57,231.48,853,231.05,853.11Z"/><path class="cls-33" d="M238.75,845.87c-.45.08-.79.84-.69,1.42.14.88,1.32,1.65,2.84,1.39C239.84,846.32,239.18,845.8,238.75,845.87Z"/><path class="cls-33" d="M248.22,839c-.45.07-.79.84-.69,1.42.14.88,1.32,1.65,2.84,1.39C249.31,839.49,248.65,839,248.22,839Z"/><path class="cls-33" d="M259.31,834.67c-.46.07-.79.84-.7,1.42.15.88,1.32,1.65,2.85,1.38C260.39,835.12,259.73,834.6,259.31,834.67Z"/><path class="cls-33" d="M212.48,890.15c-.45.07-.79.84-.69,1.42.14.88,1.32,1.65,2.84,1.39C213.57,890.6,212.91,890.08,212.48,890.15Z"/><path class="cls-33" d="M217.49,883.64c-.45.07-.79.84-.69,1.42.15.88,1.32,1.65,2.84,1.39C218.58,884.09,217.92,883.57,217.49,883.64Z"/><path class="cls-33" d="M223.31,875.94c-.45.07-.78.84-.69,1.42.15.88,1.32,1.65,2.85,1.39C224.4,876.39,223.74,875.87,223.31,875.94Z"/><path class="cls-33" d="M233.25,866.39c-.45.08-.78.85-.69,1.43.15.87,1.32,1.64,2.85,1.38C234.34,866.85,233.68,866.33,233.25,866.39Z"/><path class="cls-33" d="M241,859.15c-.45.08-.79.84-.69,1.43.14.87,1.32,1.64,2.84,1.38C242,859.61,241.38,859.08,241,859.15Z"/><path class="cls-33" d="M250.42,852.32c-.46.08-.79.84-.69,1.42.14.88,1.32,1.65,2.84,1.39C251.51,852.78,250.84,852.25,250.42,852.32Z"/><path class="cls-33" d="M261.5,848c-.45.07-.78.84-.69,1.42.15.88,1.32,1.65,2.85,1.39C262.59,848.4,261.93,847.88,261.5,848Z"/><path class="cls-33" d="M225.21,892.79c-.45.07-.79.84-.69,1.42.14.87,1.32,1.65,2.84,1.38C226.3,893.24,225.64,892.72,225.21,892.79Z"/><path class="cls-33" d="M230.22,886.28c-.45.07-.79.84-.69,1.42.15.87,1.32,1.65,2.84,1.38C231.31,886.73,230.65,886.21,230.22,886.28Z"/><path class="cls-33" d="M236,878.58c-.45.07-.78.84-.69,1.42.15.87,1.32,1.65,2.85,1.38C237.13,879,236.47,878.51,236,878.58Z"/><path class="cls-33" d="M246,869c-.45.07-.78.84-.69,1.42.15.88,1.32,1.65,2.84,1.39C247.07,869.48,246.41,869,246,869Z"/><path class="cls-33" d="M253.68,861.79c-.45.07-.79.84-.69,1.42.14.88,1.32,1.65,2.84,1.39C254.77,862.24,254.11,861.72,253.68,861.79Z"/><path class="cls-33" d="M263.15,855c-.46.07-.79.84-.69,1.42.14.88,1.32,1.65,2.84,1.39C264.24,855.41,263.57,854.89,263.15,855Z"/><path class="cls-33" d="M274.23,850.59c-.45.07-.78.84-.69,1.42.15.87,1.32,1.65,2.85,1.38C275.32,851,274.66,850.52,274.23,850.59Z"/><path class="cls-33" d="M228.77,902.1c-.45.07-.79.84-.69,1.42.14.88,1.32,1.65,2.84,1.39C229.86,902.55,229.2,902,228.77,902.1Z"/><path class="cls-33" d="M233.78,895.59c-.45.07-.79.84-.69,1.42.15.88,1.32,1.65,2.84,1.39C234.87,896,234.21,895.52,233.78,895.59Z"/><path class="cls-33" d="M239.6,887.89c-.45.07-.78.84-.69,1.42.15.88,1.32,1.65,2.85,1.39C240.69,888.34,240,887.82,239.6,887.89Z"/><path class="cls-33" d="M249.54,878.34c-.45.08-.78.85-.69,1.43.15.87,1.32,1.64,2.85,1.38C250.63,878.8,250,878.28,249.54,878.34Z"/><path class="cls-33" d="M257.24,871.1c-.45.08-.79.85-.69,1.43.14.87,1.32,1.64,2.84,1.38C258.33,871.56,257.67,871,257.24,871.1Z"/><path class="cls-33" d="M266.71,864.27c-.45.08-.79.84-.69,1.43.14.87,1.32,1.64,2.84,1.38C267.8,864.73,267.13,864.2,266.71,864.27Z"/><path class="cls-33" d="M277.79,859.9c-.45.07-.78.84-.69,1.42.15.88,1.32,1.65,2.85,1.39C278.88,860.35,278.22,859.83,277.79,859.9Z"/><path class="cls-33" d="M233.45,909.05c-.45.07-.79.84-.69,1.42.15.87,1.32,1.65,2.84,1.38C234.54,909.5,233.88,909,233.45,909.05Z"/><path class="cls-33" d="M238.46,902.54c-.45.07-.79.84-.69,1.42.15.87,1.32,1.65,2.84,1.38C239.55,903,238.89,902.47,238.46,902.54Z"/><path class="cls-33" d="M244.29,894.84c-.46.07-.79.84-.7,1.42.15.87,1.32,1.65,2.85,1.38C245.37,895.29,244.71,894.77,244.29,894.84Z"/><path class="cls-33" d="M254.22,885.29c-.45.07-.78.84-.69,1.42.15.88,1.32,1.65,2.85,1.39C255.31,885.74,254.65,885.22,254.22,885.29Z"/><path class="cls-33" d="M261.92,878.05c-.45.07-.79.84-.69,1.42.14.88,1.32,1.65,2.84,1.38C263,878.5,262.35,878,261.92,878.05Z"/><path class="cls-33" d="M271.39,871.22c-.45.07-.79.84-.69,1.42.14.88,1.32,1.65,2.84,1.38C272.48,871.67,271.81,871.15,271.39,871.22Z"/><path class="cls-33" d="M282.47,866.85c-.45.07-.78.84-.69,1.42.15.87,1.32,1.65,2.85,1.38C283.56,867.3,282.9,866.78,282.47,866.85Z"/><path class="cls-33" d="M239.86,914.69c-.46.07-.79.84-.7,1.42.15.87,1.32,1.65,2.85,1.38C240.94,915.14,240.28,914.62,239.86,914.69Z"/><path class="cls-33" d="M246.78,911.9c-.45.08-.79.84-.69,1.42.14.88,1.32,1.65,2.84,1.39C247.87,912.36,247.21,911.83,246.78,911.9Z"/><path class="cls-33" d="M252.6,904.2c-.45.08-.79.84-.69,1.43.15.87,1.32,1.64,2.84,1.38C253.69,904.66,253,904.13,252.6,904.2Z"/><path class="cls-33" d="M262.54,894.66c-.45.07-.79.84-.69,1.42.14.87,1.32,1.65,2.84,1.38C263.63,895.11,263,894.59,262.54,894.66Z"/><path class="cls-33" d="M270.24,887.42c-.46.07-.79.84-.69,1.42.14.87,1.32,1.65,2.84,1.38C271.33,887.87,270.66,887.35,270.24,887.42Z"/><path class="cls-33" d="M281.77,876.25c-.45.07-.79.84-.69,1.42.14.87,1.32,1.65,2.84,1.38C282.86,876.7,282.2,876.18,281.77,876.25Z"/><path class="cls-33" d="M260.47,909.78c-.46.07-.79.84-.7,1.42.15.88,1.32,1.65,2.85,1.39C261.55,910.23,260.89,909.71,260.47,909.78Z"/><path class="cls-33" d="M266.72,905c-.45.07-.79.84-.69,1.42.14.88,1.32,1.65,2.84,1.39C267.81,905.41,267.14,904.89,266.72,905Z"/><path class="cls-33" d="M281.24,886c-.46.08-.79.84-.69,1.43.14.87,1.32,1.64,2.84,1.38C282.33,886.48,281.66,886,281.24,886Z"/><path class="cls-33" d="M288.93,878.78c-.45.08-.78.84-.69,1.42.15.88,1.32,1.65,2.85,1.39C290,879.24,289.36,878.71,288.93,878.78Z"/><path class="cls-33" d="M261.5,883.37c-.46.07-.79.84-.7,1.42.15.88,1.33,1.65,2.85,1.39C262.58,883.82,261.92,883.3,261.5,883.37Z"/><path class="cls-33" d="M272.58,879c-.45.07-.79.84-.69,1.42.14.87,1.32,1.65,2.84,1.38C273.67,879.45,273,878.93,272.58,879Z"/><path class="cls-33" d="M251.89,920.43c-.45.07-.78.84-.69,1.42.15.87,1.32,1.65,2.84,1.38C253,920.88,252.32,920.36,251.89,920.43Z"/><path class="cls-33" d="M259,918.08c-.45.08-.78.84-.69,1.42.15.88,1.32,1.65,2.84,1.39C260.08,918.54,259.42,918,259,918.08Z"/><path class="cls-33" d="M274,898.09c-.45.08-.79.85-.69,1.43.14.87,1.32,1.64,2.84,1.38C275.13,898.55,274.47,898,274,898.09Z"/><path class="cls-33" d="M282.45,893.59c-.45.08-.79.85-.69,1.43.14.87,1.32,1.64,2.84,1.38C283.54,894.05,282.88,893.53,282.45,893.59Z"/><path class="cls-33" d="M291.92,886.76c-.45.08-.79.85-.69,1.43.14.87,1.32,1.64,2.84,1.38C293,887.22,292.34,886.7,291.92,886.76Z"/><path class="cls-33" d="M252.93,895.11c-.45.07-.79.84-.69,1.42.14.87,1.32,1.65,2.84,1.38C254,895.56,253.36,895,252.93,895.11Z"/><path class="cls-33" d="M290.3,908.87c-.46.07-.79.84-.7,1.42.15.88,1.33,1.65,2.85,1.39C291.38,909.32,290.72,908.8,290.3,908.87Z"/><path class="cls-33" d="M267.48,923.44c-.45.08-.79.84-.69,1.43.14.87,1.32,1.64,2.84,1.38C268.57,923.9,267.91,923.37,267.48,923.44Z"/><path class="cls-33" d="M273.89,912.42c-.45.07-.79.84-.69,1.42.14.88,1.32,1.65,2.84,1.39C275,912.87,274.32,912.35,273.89,912.42Z"/><path class="cls-33" d="M281.59,905.18c-.46.07-.79.84-.69,1.42.14.88,1.32,1.65,2.84,1.38C282.68,905.63,282,905.11,281.59,905.18Z"/><path class="cls-33" d="M291.06,898.35c-.46.07-.79.84-.7,1.42.15.88,1.32,1.65,2.85,1.38C292.14,898.8,291.48,898.28,291.06,898.35Z"/><path class="cls-33" d="M268.46,841.09c-.45.07-.78.84-.69,1.42.15.87,1.32,1.65,2.85,1.38C269.55,841.54,268.89,841,268.46,841.09Z"/><path class="cls-33" d="M284,858.66c-.46.07-.79.84-.7,1.42.15.88,1.33,1.65,2.85,1.39C285.09,859.11,284.43,858.59,284,858.66Z"/><path class="cls-33" d="M220,898c-.46.07-.79.84-.69,1.42.14.88,1.32,1.65,2.84,1.39C221.09,898.41,220.42,897.89,220,898Z"/><path class="cls-33" d="M279.43,923.21c-.45.07-.79.84-.69,1.42.15.88,1.32,1.65,2.84,1.39C280.52,923.66,279.86,923.14,279.43,923.21Z"/><path class="cls-33" d="M284.74,914.58c-.46.08-.79.84-.7,1.42.15.88,1.33,1.65,2.85,1.39C285.82,915,285.16,914.51,284.74,914.58Z"/><path class="cls-33" d="M286.75,922.84c-.45.08-.79.85-.69,1.43.14.87,1.32,1.64,2.84,1.38C287.84,923.3,287.18,922.78,286.75,922.84Z"/><path class="cls-33" d="M288.37,871.5c-.45.07-.79.84-.69,1.42.14.87,1.32,1.65,2.84,1.38C289.46,872,288.8,871.43,288.37,871.5Z"/><path class="cls-32" d="M1010.69,468.55c-3.49-3.84.3-12.31,1.75-15.56a36.62,36.62,0,0,1,7.45-10.8,2.11,2.11,0,0,1,1.46.55c1.76,1.83-2.28,7.18-1.2,8.22,1.46,1.38,9.05-7.85,19.52-7.87,1.63,0,5.24,0,6.11,1.8,1.56,3.29-6.82,10.56-14.58,16.47,5.47-1.58,6.7-1.34,6.91-.89.76,1.58-9.45,10.25-20.95,10C1014.77,470.39,1012.29,470.3,1010.69,468.55Z"/><path class="cls-25" d="M1021,475.55c2.92,2.39,8.93-.7,11.23-1.88a26.51,26.51,0,0,0,7.55-5.83,1.56,1.56,0,0,0-.45-1c-1.4-1.2-5.13,1.94-5.93,1.19-1.06-1,5.35-6.88,5-14.48-.07-1.18-.2-3.81-1.55-4.37-2.45-1-7.4,5.37-11.39,11.24.93-4,.7-4.92.38-5.06-1.19-.49-7.08,7.27-6.44,15.61C1019.54,472.66,1019.7,474.46,1021,475.55Z"/><path class="cls-29" d="M1019.48,460.78c-8.54-5.29-14.73-9.13-22-7.76-20.24,3.81-23.46,43.15-23.8,47.31-.92,11.34,1.31,15.27,3.44,17.39,5.54,5.51,15.3,3.59,21.61,2.35,0,0,25.5-5,40.49-31.83a7.24,7.24,0,0,0,.54-1.17C1042.61,478.84,1029,466.66,1019.48,460.78Z"/><path class="cls-33" d="M999.09,456c-.14-.3-.74-.38-1.12-.2a1.66,1.66,0,0,0-.4,2.22C999,456.83,999.21,456.27,999.09,456Z"/><path class="cls-33" d="M1004.53,458.18c-.14-.3-.73-.38-1.11-.2a1.64,1.64,0,0,0-.4,2.22C1004.43,459,1004.66,458.46,1004.53,458.18Z"/><path class="cls-33" d="M1011,460.69c-.14-.3-.73-.38-1.11-.2a1.65,1.65,0,0,0-.4,2.22C1010.85,461.53,1011.08,461,1011,460.69Z"/><path class="cls-33" d="M1019.44,465.68c-.14-.3-.73-.38-1.11-.2a1.63,1.63,0,0,0-.4,2.22C1019.34,466.51,1019.57,466,1019.44,465.68Z"/><path class="cls-33" d="M1025.91,469.57c-.14-.3-.74-.38-1.12-.2a1.66,1.66,0,0,0-.4,2.22C1025.8,470.41,1026,469.85,1025.91,469.57Z"/><path class="cls-33" d="M1032.43,474.76c-.14-.3-.73-.38-1.11-.2a1.64,1.64,0,0,0-.4,2.22C1032.33,475.59,1032.56,475,1032.43,474.76Z"/><path class="cls-33" d="M1037.58,481.53c-.13-.29-.73-.37-1.11-.2a1.66,1.66,0,0,0-.4,2.23C1037.48,482.37,1037.71,481.81,1037.58,481.53Z"/><path class="cls-33" d="M990.38,460.07c-.14-.3-.73-.38-1.11-.2a1.64,1.64,0,0,0-.4,2.22C990.28,460.91,990.51,460.35,990.38,460.07Z"/><path class="cls-33" d="M995.82,462.26c-.13-.3-.73-.38-1.11-.2a1.64,1.64,0,0,0-.4,2.22C995.72,463.09,996,462.54,995.82,462.26Z"/><path class="cls-33" d="M1002.24,464.77c-.13-.3-.73-.38-1.11-.2a1.65,1.65,0,0,0-.4,2.22C1002.14,465.61,1002.37,465.05,1002.24,464.77Z"/><path class="cls-33" d="M1010.73,469.76c-.14-.3-.73-.38-1.11-.2a1.65,1.65,0,0,0-.4,2.22C1010.63,470.59,1010.86,470,1010.73,469.76Z"/><path class="cls-33" d="M1017.2,473.65c-.14-.3-.73-.38-1.11-.2a1.64,1.64,0,0,0-.4,2.22C1017.1,474.49,1017.33,473.93,1017.2,473.65Z"/><path class="cls-33" d="M1023.73,478.84c-.14-.3-.73-.38-1.12-.2a1.66,1.66,0,0,0-.4,2.22C1023.63,479.67,1023.86,479.12,1023.73,478.84Z"/><path class="cls-33" d="M1028.88,485.62c-.14-.3-.73-.38-1.11-.21a1.66,1.66,0,0,0-.41,2.23C1028.78,486.45,1029,485.9,1028.88,485.62Z"/><path class="cls-33" d="M991,469.33c-.14-.29-.73-.37-1.11-.2a1.65,1.65,0,0,0-.4,2.23C990.93,470.17,991.16,469.61,991,469.33Z"/><path class="cls-33" d="M996.47,471.52c-.13-.3-.73-.38-1.11-.2a1.65,1.65,0,0,0-.4,2.22C996.37,472.36,996.6,471.8,996.47,471.52Z"/><path class="cls-33" d="M1002.89,474c-.13-.29-.73-.37-1.11-.2a1.66,1.66,0,0,0-.4,2.23C1002.79,474.87,1003,474.31,1002.89,474Z"/><path class="cls-33" d="M1011.38,479c-.14-.3-.73-.38-1.11-.2a1.65,1.65,0,0,0-.4,2.22C1011.28,479.86,1011.51,479.3,1011.38,479Z"/><path class="cls-33" d="M1017.85,482.91c-.14-.29-.73-.38-1.11-.2a1.65,1.65,0,0,0-.4,2.23C1017.75,483.75,1018,483.19,1017.85,482.91Z"/><path class="cls-33" d="M1024.38,488.1c-.14-.3-.74-.38-1.12-.2a1.66,1.66,0,0,0-.4,2.22C1024.27,488.94,1024.51,488.38,1024.38,488.1Z"/><path class="cls-33" d="M1029.53,494.88c-.14-.3-.73-.38-1.12-.2a1.65,1.65,0,0,0-.4,2.22C1029.43,495.71,1029.66,495.16,1029.53,494.88Z"/><path class="cls-33" d="M985.31,473.58c-.14-.29-.73-.37-1.11-.2a1.66,1.66,0,0,0-.4,2.23C985.21,474.42,985.44,473.86,985.31,473.58Z"/><path class="cls-33" d="M990.76,475.77c-.14-.3-.73-.38-1.11-.2a1.64,1.64,0,0,0-.4,2.22C990.66,476.61,990.89,476.05,990.76,475.77Z"/><path class="cls-33" d="M997.18,478.28c-.14-.29-.73-.37-1.11-.2a1.65,1.65,0,0,0-.4,2.23C997.08,479.12,997.31,478.56,997.18,478.28Z"/><path class="cls-33" d="M1005.67,483.27c-.14-.3-.74-.38-1.12-.2a1.66,1.66,0,0,0-.4,2.22C1005.56,484.11,1005.8,483.55,1005.67,483.27Z"/><path class="cls-33" d="M1012.13,487.16c-.14-.29-.73-.38-1.11-.2a1.66,1.66,0,0,0-.4,2.23C1012,488,1012.26,487.44,1012.13,487.16Z"/><path class="cls-33" d="M1018.66,492.35c-.14-.3-.73-.38-1.11-.2a1.65,1.65,0,0,0-.4,2.22C1018.56,493.19,1018.79,492.63,1018.66,492.35Z"/><path class="cls-33" d="M1023.81,499.13c-.14-.3-.73-.38-1.11-.2a1.64,1.64,0,0,0-.4,2.22C1023.71,500,1023.94,499.41,1023.81,499.13Z"/><path class="cls-33" d="M981.44,478.15c-.14-.3-.73-.38-1.11-.2a1.64,1.64,0,0,0-.4,2.22C981.34,479,981.57,478.43,981.44,478.15Z"/><path class="cls-33" d="M986.89,480.33c-.14-.3-.73-.38-1.11-.2a1.64,1.64,0,0,0-.4,2.22C986.79,481.17,987,480.61,986.89,480.33Z"/><path class="cls-33" d="M993.31,482.85c-.14-.3-.73-.38-1.11-.2a1.63,1.63,0,0,0-.4,2.22C993.21,483.68,993.44,483.13,993.31,482.85Z"/><path class="cls-33" d="M1001.8,487.83c-.14-.29-.74-.38-1.12-.2a1.67,1.67,0,0,0-.4,2.23C1001.69,488.67,1001.93,488.11,1001.8,487.83Z"/><path class="cls-33" d="M1008.26,491.72c-.14-.29-.73-.37-1.11-.2a1.66,1.66,0,0,0-.4,2.23C1008.16,492.56,1008.39,492,1008.26,491.72Z"/><path class="cls-33" d="M1014.79,496.91c-.14-.29-.73-.38-1.11-.2a1.66,1.66,0,0,0-.4,2.23C1014.69,497.75,1014.92,497.19,1014.79,496.91Z"/><path class="cls-33" d="M1019.94,503.69c-.14-.3-.73-.38-1.11-.2a1.65,1.65,0,0,0-.4,2.22C1019.84,504.52,1020.07,504,1019.94,503.69Z"/><path class="cls-33" d="M978.8,483.64c-.13-.3-.73-.38-1.11-.2a1.65,1.65,0,0,0-.4,2.22C978.7,484.47,978.93,483.92,978.8,483.64Z"/><path class="cls-33" d="M982.06,487.86c-.14-.3-.73-.38-1.11-.2a1.65,1.65,0,0,0-.41,2.22C982,488.7,982.19,488.14,982.06,487.86Z"/><path class="cls-33" d="M988.48,490.38c-.14-.3-.73-.38-1.11-.2a1.64,1.64,0,0,0-.41,2.22C988.38,491.21,988.61,490.66,988.48,490.38Z"/><path class="cls-33" d="M997,495.36c-.13-.29-.73-.38-1.11-.2a1.67,1.67,0,0,0-.4,2.23C996.86,496.2,997.09,495.64,997,495.36Z"/><path class="cls-33" d="M1003.43,499.25c-.14-.29-.73-.37-1.11-.2a1.66,1.66,0,0,0-.4,2.23C1003.33,500.09,1003.56,499.53,1003.43,499.25Z"/><path class="cls-33" d="M1013.34,505c-.14-.29-.73-.38-1.11-.2a1.66,1.66,0,0,0-.4,2.23C1013.24,505.86,1013.47,505.3,1013.34,505Z"/><path class="cls-33" d="M986.16,496.86c-.13-.3-.73-.38-1.11-.2a1.65,1.65,0,0,0-.4,2.22C986.06,497.7,986.29,497.14,986.16,496.86Z"/><path class="cls-33" d="M990.69,500.23c-.14-.3-.73-.38-1.11-.2a1.65,1.65,0,0,0-.41,2.22C990.59,501.06,990.82,500.51,990.69,500.23Z"/><path class="cls-33" d="M1006.52,506.55c-.14-.3-.73-.38-1.11-.2a1.65,1.65,0,0,0-.41,2.22C1006.42,507.38,1006.65,506.83,1006.52,506.55Z"/><path class="cls-33" d="M1013,510.44c-.13-.3-.73-.38-1.11-.2a1.65,1.65,0,0,0-.4,2.22C1012.88,511.28,1013.11,510.72,1013,510.44Z"/><path class="cls-33" d="M1004.52,492.46c-.14-.3-.73-.38-1.11-.2a1.65,1.65,0,0,0-.4,2.22C1004.42,493.3,1004.65,492.74,1004.52,492.46Z"/><path class="cls-33" d="M1009.67,499.24c-.14-.3-.73-.38-1.11-.2a1.64,1.64,0,0,0-.4,2.22C1009.57,500.07,1009.8,499.52,1009.67,499.24Z"/><path class="cls-33" d="M977.19,493c-.14-.3-.74-.38-1.12-.2a1.65,1.65,0,0,0-.4,2.22C977.08,493.86,977.31,493.31,977.19,493Z"/><path class="cls-33" d="M980.17,497.46c-.14-.3-.73-.38-1.11-.21a1.66,1.66,0,0,0-.4,2.23C980.07,498.29,980.3,497.73,980.17,497.46Z"/><path class="cls-33" d="M996.83,503.94c-.14-.3-.74-.38-1.12-.21a1.67,1.67,0,0,0-.4,2.23C996.72,504.77,997,504.21,996.83,503.94Z"/><path class="cls-33" d="M1001.55,508.85c-.14-.3-.73-.38-1.12-.2a1.65,1.65,0,0,0-.4,2.22C1001.44,509.68,1001.68,509.13,1001.55,508.85Z"/><path class="cls-33" d="M1008.07,514c-.13-.3-.73-.38-1.11-.2a1.64,1.64,0,0,0-.4,2.22C1008,514.87,1008.2,514.32,1008.07,514Z"/><path class="cls-33" d="M994.8,488.84c-.14-.29-.74-.38-1.12-.2a1.67,1.67,0,0,0-.4,2.23C994.69,489.68,994.92,489.12,994.8,488.84Z"/><path class="cls-33" d="M992.56,517.2c-.14-.3-.73-.38-1.11-.2a1.63,1.63,0,0,0-.4,2.22C992.46,518,992.69,517.48,992.56,517.2Z"/><path class="cls-33" d="M978.13,504.33c-.14-.3-.73-.38-1.11-.2a1.64,1.64,0,0,0-.41,2.22C978,505.16,978.26,504.61,978.13,504.33Z"/><path class="cls-33" d="M987,506.6c-.14-.29-.73-.38-1.12-.2a1.67,1.67,0,0,0-.4,2.23C986.84,507.44,987.08,506.88,987,506.6Z"/><path class="cls-33" d="M993.41,510.49c-.13-.29-.73-.37-1.11-.2a1.66,1.66,0,0,0-.4,2.23C993.31,511.33,993.54,510.77,993.41,510.49Z"/><path class="cls-33" d="M999.94,515.68c-.14-.29-.73-.38-1.11-.2a1.66,1.66,0,0,0-.4,2.23C999.84,516.52,1000.07,516,999.94,515.68Z"/><path class="cls-33" d="M1034.94,489.07c-.14-.29-.73-.38-1.11-.2a1.66,1.66,0,0,0-.4,2.23C1034.84,489.91,1035.07,489.35,1034.94,489.07Z"/><path class="cls-33" d="M1025.87,503.16c-.14-.3-.73-.38-1.11-.2a1.65,1.65,0,0,0-.41,2.22C1025.77,504,1026,503.44,1025.87,503.16Z"/><path class="cls-33" d="M986.46,466.75c-.13-.3-.73-.38-1.11-.2a1.65,1.65,0,0,0-.4,2.22C986.36,467.59,986.59,467,986.46,466.75Z"/><path class="cls-33" d="M980.6,512.5c-.14-.3-.73-.38-1.11-.2a1.64,1.64,0,0,0-.4,2.22C980.5,513.34,980.73,512.78,980.6,512.5Z"/><path class="cls-33" d="M987.56,514.48c-.14-.3-.73-.38-1.11-.2a1.64,1.64,0,0,0-.41,2.22C987.46,515.31,987.69,514.76,987.56,514.48Z"/><path class="cls-33" d="M982.27,517.46c-.14-.3-.73-.38-1.11-.2a1.65,1.65,0,0,0-.41,2.22C982.17,518.3,982.4,517.74,982.27,517.46Z"/><path class="cls-33" d="M1017.88,508.64c-.13-.29-.73-.38-1.11-.2a1.66,1.66,0,0,0-.4,2.23C1017.78,509.48,1018,508.92,1017.88,508.64Z"/></g></g></svg>