<svg xmlns="http://www.w3.org/2000/svg" viewBox="0 0 755.39 317.8"><defs><style>.cls-1{fill:#202121;}.cls-2{fill:#f4ede2;}.cls-3{fill:#a79674;}.cls-4{fill:#e6dab9;}.cls-5{fill:#3b3d3d;}.cls-6{fill:#d8a75f;}.cls-7{fill:#997743;}</style></defs><g id="Layer_2" data-name="Layer 2"><g id="Layer_1-2" data-name="Layer 1"><path class="cls-1" d="M515.17,217.25c-22.67,32.88-69.5,55.12-118.35,62.64-41,9.44-108.14,2.87-179.79-20.35s-129.92-57.3-157.58-89C24.32,135.81-.57,90.36.35,50.44c2.81,20.12,22.1,43.63,53.36,67.26,42.16,31.9,106.12,64,180.71,88.16s145.22,35.68,198.08,34.58C471.68,239.62,501.09,231.89,515.17,217.25Z"/><path class="cls-2" d="M492.28,141l-2-1.84c-1.61-1.46-3.25-2.94-5-4.42C444.22,99,373.79,61.82,289.91,34.64S127.16-3.71,72.93,1.08v0l-1.74.17-1.6.16c-34.16,3.47-58,13.54-66.34,30.14a29.79,29.79,0,0,0-1.75,4.26A32.65,32.65,0,0,0,.35,50.44c2.81,20.11,22.09,43.63,53.36,67.27,42.17,31.89,106.12,64,180.72,88.14s145.21,35.7,198.07,34.58c39.18-.81,68.59-8.53,82.66-23.18a31.12,31.12,0,0,0,8.76-17C526.72,183,515,162.39,492.28,141Zm26.56,60.18c-5.43,16.75-27,26.93-59.35,30.64q-11.28.43-24.15-.1c-1.9-.07-3.84-.16-5.8-.26-51.18-2.83-120.88-12.39-192.72-35.68-69.6-22.54-128.51-53.85-171.33-81l-4.1-2.61c-1.64-1.07-3.27-2.13-4.84-3.17-7.11-4.73-13.63-9.4-19.5-14C12.9,72.94,1.39,52,6.82,35.25c5.64-17.36,28.58-27.67,63-31,.56,0,1.12-.09,1.67-.15S72.6,4,73.16,4c53-4.34,131.6,7.2,215.54,34.39s154.38,64,194.76,98.56c1.72,1.48,3.39,3,5,4.42.64.57,1.26,1.16,1.87,1.73C513.3,164.48,524.15,184.79,518.84,201.14Z"/><path class="cls-3" d="M518.84,201.14c-5.43,16.75-27,26.93-59.35,30.64q-11.28.43-24.15-.1c-1.9-.07-3.84-.16-5.8-.26-17.13-42.2-81.37-89.11-165.68-116.43S100,88,61.39,112.13c-1.64-1.07-3.27-2.13-4.84-3.17-7.11-4.73-13.63-9.4-19.5-14C12.9,72.94,1.39,52,6.82,35.25c5.64-17.36,28.58-27.67,63-31,.56,0,1.12-.09,1.67-.15S72.6,4,73.16,4c53-4.34,131.6,7.2,215.54,34.39s154.38,64,194.76,98.56c1.72,1.48,3.39,3,5,4.42.64.57,1.26,1.16,1.87,1.73C513.3,164.48,524.15,184.79,518.84,201.14Z"/><path class="cls-1" d="M583.34,252.86c-1.65,6.07,0,12.44,3.91,17.95l-89.78-24.3c-11.58-3.14-19.05-12.72-16.69-21.42,1.18-4.35,4.58-7.66,9.15-9.48A25.76,25.76,0,0,1,506,215l89.78,24.3C589.59,242.09,585,246.78,583.34,252.86Z"/><path class="cls-4" d="M429.54,231.42c-51.18-2.83-120.88-12.39-192.72-35.68-69.6-22.54-128.51-53.85-171.33-81l-4.1-2.61C100,88,179.56,87.68,263.86,115S412.41,189.22,429.54,231.42Z"/><path class="cls-5" d="M12.28,88.68a255.7,255.7,0,0,0,53,79.35c24.44,24.78,46.74,37.07,76.93,53.71,31,17.1,51.43,23.6,53.36,20.44,1.46-2.4-9.11-8.11-8.32-17.32.81-9.4,12.7-14,11.09-20.79-.66-2.79-3.28-4.55-5.2-5.55a551.5,551.5,0,0,1-90.44-43A551.08,551.08,0,0,1,12.28,88.68Z"/><path class="cls-5" d="M494.61,225.2c-1.87-.45-6.38-1.49-7.63.35-1.06,1.56.75,4.5,1.39,5.54,5.11,8.3,62.78,21.66,90.44,27.72,3.41.84,6.63-.39,7.62-2.42,1.24-2.57-.67-7.23-5.55-8.67C536.08,235.84,503.06,227.23,494.61,225.2Z"/><path class="cls-6" d="M734.29,317.8a42.15,42.15,0,0,1-8.36-1.38L608,284.48c-9-2.43-16.32-7.52-20.72-13.67-4-5.51-5.56-11.88-3.91-17.95s6.25-10.77,12.44-13.54c.34-.16.7-.31,1.06-.45a38,38,0,0,1,23.72-.88l118,31.94a41.61,41.61,0,0,1,7.88,3,12.18,12.18,0,0,0-1.35-.05,17.56,17.56,0,0,0-4.2-1.75,18.22,18.22,0,0,0-3.16-.56c-9.91-.85-19.67,6.59-22.74,17.92s1.61,22.71,10.63,26.95a17.56,17.56,0,0,0,7.48,1.71C733.47,317.39,733.88,317.6,734.29,317.8Z"/><path class="cls-7" d="M754.45,299.18c-2.92,10.81-12,18.08-21.39,18a17.56,17.56,0,0,1-7.48-1.71c-9-4.24-13.7-15.61-10.63-26.95s12.83-18.77,22.74-17.92a18.22,18.22,0,0,1,3.16.56,17.56,17.56,0,0,1,4.2,1.75C753.24,277.54,757.38,288.38,754.45,299.18Z"/></g></g></svg>