<svg xmlns="http://www.w3.org/2000/svg" viewBox="0 0 286.87 302.19"><defs><style>.cls-1{fill:#f8d099;}.cls-2{fill:#808285;}.cls-3{fill:#d96c27;}.cls-4{fill:#f68d3a;}.cls-5{fill:#f9a54e;}.cls-6{fill:#a7a9ac;}.cls-7{fill:#faa951;}.cls-8{fill:#e2a55a;}</style></defs><g id="Layer_2" data-name="Layer 2"><g id="Layer_1-2" data-name="Layer 1"><path class="cls-1" d="M242.51,285.62C191.34,311.08,139.72,299.84,136,299,46.39,278.13,12.74,183.72,10,175.44,7,166.79-13.31,103.94,14.34,47.25,20.25,35.13,32.2,11.55,55,3.23h0a16.15,16.15,0,0,0-3.42,2.63C26.14,31.74,15,69.6,13.54,74.92c-18.73,66.92,17.53,122,28.31,138.4.15.23.31.46.46.7l.47.72C52.65,230,78,267.22,126,284.39l2.09.74,1.23.4.26.09.43.14,1.55.49c.93.29,1.88.59,2.84.86,1.67.49,3.37,1,5.08,1.39,10.41,2.64,65.09,15.34,116-17.11l.57-.36.62-.41.65-.42.59-.39a147.15,147.15,0,0,0,26.56-21.48,8.63,8.63,0,0,0,1.94-3.17v0h0C283.66,264.22,250.06,281.85,242.51,285.62Z"/><path class="cls-2" d="M259.22,226.37h0Z"/><path class="cls-3" d="M286.83,242v0c-1-10.77-12.25-15.11-35.84-32.56,0,0-30-22.17-52.78-46.59C180.05,143.31,185,139.23,153,80.59,121.33,22.33,106.2,7.49,87.1,2.14a54.92,54.92,0,0,0-27.61-.75A16.47,16.47,0,0,0,55,3.23a16.15,16.15,0,0,0-3.42,2.63C26.14,31.74,15,69.6,13.54,74.92c-18.73,66.92,17.53,122,28.31,138.4.15.23.31.46.46.7l.47.72c10.45,15.8,35.78,52.62,83.19,69.65l2.09.74,1.23.4.26.09.43.14,1.55.49c.93.29,1.88.59,2.84.86,1.67.49,3.37,1,5.08,1.39,10.41,2.64,65.09,15.34,116-17.11l.57-.36.62-.41.65-.42.59-.39a147.15,147.15,0,0,0,26.56-21.48,8.63,8.63,0,0,0,1.94-3.17v0A7.3,7.3,0,0,0,286.83,242ZM48.43,25.06c2.87-2.92,20.29-20.62,39-17.18,16.14,3,29,20.92,38,33.4,2.5,3.48,4.51,6.62,6.92,10.68,13.49,22.64,20.06,40.59,27,57.19C173.78,143.54,181,160.72,190.21,169c27,24.2,34.3,30.09,34.3,30.09,7.57,6.14,13.38,10.51,12.47,14.93-.8,3.91-6.46,6-25.44,10.49-19.77,4.67-29.65,7-35.22,7.47a132.08,132.08,0,0,1-53.22-7C92.59,214.67,58.9,190.1,41,151.46S18.69,55.3,48.43,25.06ZM83.37,253.67c-.84-.64-1.66-1.29-2.46-1.94s-1.64-1.32-2.44-2-1.3-1.08-1.92-1.63l-1-.84c-.58-.51-1.15-1-1.71-1.54h0c-.53-.47-1-.95-1.55-1.43q-1.95-1.8-3.79-3.65c-.66-.66-1.32-1.33-2-2q-3.89-4-7.33-8.16c-.43-.5-.85-1-1.26-1.52s-.66-.79-1-1.19c-.45-.55-.89-1.12-1.33-1.69s-1-1.22-1.4-1.82-1.06-1.4-1.56-2.1-1.05-1.44-1.56-2.17-1-1.45-1.51-2.18-1-1.45-1.46-2.17-1-1.46-1.42-2.18l-1.26-2c-.36-.58-.72-1.17-1.07-1.76s-.64-1.05-1-1.58-.61-1-.91-1.57c-.16-.27-.31-.55-.46-.82-.26-.45-.53-.9-.78-1.36q-2.05-3.74-3.87-7.39c-.29-.57-.56-1.14-.84-1.73q-1-2.1-1.94-4.17t-1.89-4.3c-.23-.55-.46-1.1-.68-1.65s-.47-1.1-.67-1.64c-.45-1.13-.89-2.25-1.31-3.36a1.83,1.83,0,0,1,3.39-1.37l.3.63c.32.63.63,1.28,1,1.93l1.65,3.27c.34.66.68,1.33,1,2,.48.93,1,1.85,1.47,2.79.39.71.78,1.44,1.19,2.15.5.9,1,1.81,1.53,2.7.41.73.83,1.44,1.24,2.15.2.34.4.68.6,1,1.07,1.82,2.18,3.64,3.34,5.44q.57.9,1.17,1.8c.41.65.84,1.3,1.27,2s.88,1.3,1.32,1.94.88,1.3,1.33,1.93c1.77,2.53,3.62,5.05,5.54,7.53.53.7,1.07,1.38,1.61,2.05s1.22,1.53,1.85,2.29l.61.75c.55.66,1.1,1.33,1.67,2,.71.84,1.42,1.66,2.15,2.48.16.2.32.38.49.56.56.64,1.14,1.27,1.71,1.9s1.26,1.36,1.9,2c.82.87,1.65,1.74,2.5,2.6h0q1.26,1.3,2.58,2.58c.4.4.81.79,1.22,1.18s.81.79,1.24,1.17c.75.7,1.5,1.4,2.27,2.09s1.37,1.23,2.06,1.85L82,244l2,1.7c.79.67,1.59,1.34,2.41,2s1.64,1.33,2.48,2,1.67,1.31,2.52,1.94,1.64,1.22,2.47,1.82l.28.2,2.47,1.75,2.35,1.6c38.52,25.76,79.52,30.1,79.25,31S126.83,287.09,83.37,253.67Zm163.72,17c-6.29,2.44-29.32,10.58-52.72,1.29-3.81-1.52-8.41-3.39-8.34-5.72.17-5.68,27.61-3.82,50.7-20.1l.93-.67c.3-.21.59-.43.87-.65.61-.45,1.21-.92,1.77-1.39l1-.84,1.05-.9c1-.91,2-1.83,3-2.75.21-.2.42-.4.61-.61s.42-.41.61-.62c.4-.4.79-.81,1.17-1.22,1.39-1.48,2.65-3,3.79-4.4.54-.69,1.07-1.38,1.57-2,.25-.34.51-.68.75-1,.45-.62.86-1.22,1.26-1.8a1.74,1.74,0,0,1,1.39-.79,23.93,23.93,0,0,1,2.54,0h.25c.4,0,.8,0,1.18.08l1.07.11.28.05c.27,0,.53.07.79.12l.32.07c.32.05.63.12.95.19l.61.15c.34.09.66.19,1,.29l.43.13a15.88,15.88,0,0,1,9.34,7.36c2.92,5.46,1,11.38.47,13.23C271.62,261.09,257,266.77,247.09,270.62Z"/><path class="cls-4" d="M237,214c.91-4.42-4.9-8.79-12.47-14.93,0,0-7.27-5.89-34.3-30.09-9.23-8.27-16.43-25.45-30.85-59.84-7-16.6-13.53-34.55-27-57.19-2.41-4.06-4.42-7.2-6.92-10.68-9-12.48-21.85-30.43-38-33.4-18.71-3.44-36.13,14.26-39,17.18C18.69,55.3,23.19,112.93,41,151.46S92.59,214.67,123.1,225a132.08,132.08,0,0,0,53.22,7c5.57-.46,15.45-2.8,35.22-7.47C230.52,220,236.18,217.92,237,214Zm-62.23-48.16q-2.55-1.69-5-3.39c-1-.69-2-1.39-3-2.08s-1.75-1.24-2.6-1.87-1.7-1.23-2.54-1.85l-2.43-1.8c-1-.73-1.93-1.47-2.86-2.21-.66-.51-1.33-1-2-1.55l-2-1.6-.5-.4c-1.44-1.17-2.86-2.34-4.24-3.5l-2.14-1.82-1.74-1.51c-2.88-2.51-5.59-5-8.16-7.42-1.22-1.17-2.41-2.31-3.56-3.46-2.9-2.85-5.58-5.62-8.07-8.29l-1.46-1.59c-2.4-2.62-4.59-5.13-6.6-7.5C93.74,87.88,92.47,75.9,94.6,67.85s9.2-18.19,17.78-18.59c4.57-.21,8.63,2.41,13.42,7.09,11.49,11.21,15.86,23.27,21.46,37.54,0,0,8.68,22.09,20.73,49.07,1.93,4.31,3.77,8.3,5.47,11.92.28.59.55,1.18.83,1.76l1.14,2.38c.37.77.73,1.52,1.09,2.25s.7,1.43,1,2.12a1.93,1.93,0,0,1-2.78,2.47Z"/><path class="cls-5" d="M174.77,165.86h0q-2.55-1.69-5-3.39c-1-.69-2-1.39-3-2.08s-1.75-1.24-2.6-1.87-1.7-1.23-2.54-1.85l-2.43-1.8c-1-.73-1.93-1.47-2.86-2.21-.66-.51-1.33-1-2-1.55l-2-1.6-.5-.4c-1.44-1.17-2.86-2.34-4.24-3.5l-2.14-1.82-1.74-1.51c-2.88-2.51-5.59-5-8.16-7.42-1.22-1.17-2.41-2.31-3.56-3.46-2.9-2.85-5.58-5.62-8.07-8.29l-1.46-1.59c-2.4-2.62-4.59-5.13-6.6-7.5C93.74,87.88,92.47,75.9,94.6,67.85s9.2-18.19,17.78-18.59c4.57-.21,8.63,2.41,13.42,7.09,11.49,11.21,15.86,23.27,21.46,37.54,0,0,8.68,22.09,20.73,49.07,1.93,4.31,3.77,8.3,5.47,11.92.28.59.55,1.19.83,1.76l1.14,2.38c.37.77.73,1.52,1.09,2.25s.7,1.43,1,2.12A1.93,1.93,0,0,1,174.77,165.86Z"/><path class="cls-6" d="M259.28,226.38h0Z"/><path class="cls-7" d="M247.09,270.62c-6.29,2.44-29.32,10.58-52.72,1.29-3.81-1.52-8.41-3.39-8.34-5.72.17-5.68,27.61-3.82,50.7-20.1l.93-.67c.3-.21.59-.43.87-.65.61-.45,1.21-.92,1.77-1.39l1-.84q.56-.43,1.05-.9c1-.91,2-1.83,3-2.75.21-.2.42-.4.61-.61s.42-.41.61-.62c.41-.4.8-.8,1.17-1.22,1.39-1.48,2.65-3,3.79-4.4.54-.69,1.08-1.38,1.57-2,.25-.34.51-.68.75-1a6.28,6.28,0,0,1,5.19-2.6h.25c.39,0,.8,0,1.18.08l1.07.11.28.05c.27,0,.53.07.79.12l.32.07c.32.05.63.12.95.19l.61.15,1,.29.43.13a15.88,15.88,0,0,1,9.34,7.36c2.92,5.46,1,11.38.47,13.23C271.62,261.09,257,266.77,247.09,270.62Z"/><path class="cls-8" d="M178.18,288c-.28,1-51.35-.91-94.81-34.33-.84-.64-1.66-1.29-2.46-1.94s-1.64-1.32-2.44-2-1.3-1.08-1.92-1.63l-1-.84c-.58-.51-1.15-1-1.71-1.54h0c-.53-.47-1-1-1.55-1.43q-1.95-1.8-3.79-3.65c-.66-.66-1.32-1.33-2-2q-3.89-4-7.33-8.16c-.43-.5-.85-1-1.26-1.52s-.66-.79-1-1.19c-.45-.55-.89-1.12-1.33-1.69s-1-1.22-1.4-1.82-1.06-1.4-1.56-2.1-1.05-1.44-1.56-2.17-1-1.45-1.51-2.18-1-1.45-1.46-2.17-1-1.46-1.42-2.18l-1.26-2c-.36-.58-.72-1.17-1.07-1.76s-.64-1.05-1-1.58-.61-1-.91-1.57c-.16-.27-.31-.55-.46-.82-.26-.45-.53-.9-.78-1.36q-2.05-3.74-3.87-7.39c-.29-.57-.56-1.14-.84-1.73q-1-2.1-1.94-4.17t-1.89-4.3c-.23-.55-.46-1.1-.68-1.65s-.46-1.09-.67-1.64c-.45-1.13-.89-2.25-1.31-3.36a1.83,1.83,0,0,1,3.39-1.37l.3.63c.32.63.63,1.28,1,1.93l1.65,3.27c.34.66.68,1.33,1,2,.48.93,1,1.85,1.47,2.79.39.71.78,1.44,1.19,2.15.5.9,1,1.81,1.53,2.7.41.73.83,1.44,1.24,2.15.2.34.4.68.6,1,1.07,1.82,2.18,3.64,3.34,5.44q.57.9,1.17,1.8c.41.65.84,1.3,1.27,2s.88,1.3,1.32,1.94.88,1.3,1.33,1.93c1.77,2.53,3.62,5.05,5.54,7.53.53.7,1.07,1.38,1.61,2.05s1.22,1.53,1.85,2.29l.61.75c.55.66,1.1,1.33,1.67,2,.71.84,1.42,1.66,2.15,2.48.16.2.32.38.49.56.56.64,1.14,1.27,1.71,1.9s1.26,1.37,1.9,2c.82.88,1.65,1.75,2.5,2.6h0q1.26,1.3,2.58,2.58c.4.4.81.79,1.22,1.18s.81.79,1.24,1.17c.75.7,1.5,1.4,2.27,2.09s1.37,1.23,2.06,1.85L82,244c.66.57,1.32,1.15,2,1.7s1.59,1.34,2.41,2,1.64,1.33,2.48,2,1.67,1.31,2.52,1.94,1.64,1.22,2.47,1.82l.28.2c.82.59,1.64,1.18,2.47,1.75l2.35,1.6C137.45,282.73,178.45,287.07,178.18,288Z"/></g></g></svg>