<svg xmlns="http://www.w3.org/2000/svg" viewBox="0 0 1033.88 945.09"><defs><style>.cls-1{fill:#fdebe8;}</style></defs><title>Asset 15</title><g id="Layer_2" data-name="Layer 2"><g id="Layer_1-2" data-name="Layer 1"><circle class="cls-1" cx="498.57" cy="472.54" r="472.54"/><path class="cls-1" d="M5.67,622.58c4.51-2.77,11.4-2.85,16-.53,6.68,3.37,5.26,10.21,9.22,20.67,7.58,20,23,21.82,22.13,35-.42,6.56-4.68,13-11.06,16.44C32.81,699,20.43,697,13.05,692S4.33,677.51,2,658.62C-.62,637.69-1.77,627.13,5.67,622.58Z"/><path class="cls-1" d="M1008.38,334.82c-.76-.45-11.07-6.24-21.57-1.12-11.64,5.66-12.72,19.42-12.78,20.39-1,15.66,14,32.72,27.86,30.68,11.25-1.66,16.51-15.06,16.9-16.09C1023.17,357,1019.69,341.42,1008.38,334.82Z"/><path class="cls-1" d="M996.77,436.72c-5.69,11,.24,20,2.73,36.53,3.76,25-3.38,46.85-8.28,61.82-6.08,18.63-17,31.29-12.59,35.7,2.19,2.21,6.84,1.1,8.56.69,8.23-2,12.87-9.5,15.35-13.67,15.65-26.26,23.55-39.38,25.77-47.35,3.66-13.13,9.08-33.55,2.44-57-1.63-5.76-7.8-27.54-18.94-28.23C1005.56,424.86,999.61,431.24,996.77,436.72Z"/></g></g></svg>