<svg xmlns="http://www.w3.org/2000/svg" viewBox="0 0 66.59 69.54"><defs><style>.cls-1{fill:#4ca487;}.cls-2{fill:#3d856d;}.cls-3{fill:#ea475a;}.cls-4{fill:#eb5b72;}.cls-5{fill:#da2228;}.cls-6{fill:#e43145;}.cls-7{fill:#dc2428;}.cls-8{fill:#eb425d;}</style></defs><g id="Layer_2" data-name="Layer 2"><g id="Layer_1-2" data-name="Layer 1"><path class="cls-1" d="M29.8,4.67a55.38,55.38,0,0,1-2,14.94,54.52,54.52,0,0,1-5.85,13.57L33.76,30.9a31.5,31.5,0,0,0,.8-13.77A33.47,33.47,0,0,0,29.8,4.67Z"/><path class="cls-1" d="M21.16.5a61,61,0,0,1,1.72,16.28A59.35,59.35,0,0,1,20.26,32.5L32,27.31a34.78,34.78,0,0,0-2.68-14.75A37.35,37.35,0,0,0,21.16.5Z"/><path class="cls-2" d="M11.71,12.71a41.41,41.41,0,0,0,8.68,5,41.68,41.68,0,0,0,9.48,2.73L24,24.91a23.1,23.1,0,0,1-7.58-5.1A21.92,21.92,0,0,1,11.71,12.71Z"/><path class="cls-2" d="M31.13,0a63,63,0,0,1-2.26,17,61.9,61.9,0,0,1-6.59,15.38l13.4-2.56a35.83,35.83,0,0,0,.88-15.63A38.17,38.17,0,0,0,31.13,0Z"/><path class="cls-1" d="M0,16.87a65.23,65.23,0,0,0,15.18,4.82,63.82,63.82,0,0,0,15.55,1l-7.36,9A36.67,36.67,0,0,1,9.84,26.35,36,36,0,0,1,0,16.87Z"/><path class="cls-2" d="M2.91,18.19a58.68,58.68,0,0,0,13.54,4.33,57.42,57.42,0,0,0,13.85.9l-6.53,8A32.84,32.84,0,0,1,11.7,26.66,31.91,31.91,0,0,1,2.91,18.19Z"/><ellipse class="cls-3" cx="58.2" cy="51" rx="6.52" ry="6.91" transform="translate(-11.1 85.44) rotate(-67.66)"/><ellipse class="cls-4" cx="16.91" cy="52.75" rx="6.52" ry="6.91" transform="translate(-38.3 48.34) rotate(-67.66)"/><ellipse class="cls-5" cx="23.57" cy="48.83" rx="6.52" ry="6.91" transform="translate(-30.56 52.07) rotate(-67.66)"/><ellipse class="cls-4" cx="53.71" cy="54.4" rx="6.52" ry="6.91" transform="translate(-17.03 83.39) rotate(-67.66)"/><ellipse class="cls-5" cx="58.1" cy="40.49" rx="6.52" ry="6.91" transform="translate(-1.44 78.83) rotate(-67.66)"/><ellipse class="cls-6" cx="48.85" cy="57.26" rx="6.52" ry="6.91" transform="translate(-22.68 80.68) rotate(-67.66)"/><ellipse class="cls-6" cx="50.14" cy="44.26" rx="6.52" ry="6.91" transform="translate(-9.86 73.81) rotate(-67.66)"/><ellipse class="cls-4" cx="39.15" cy="62.97" rx="6.52" ry="6.91" transform="translate(-33.97 75.24) rotate(-67.66)"/><ellipse class="cls-6" cx="27.77" cy="57.87" rx="6.52" ry="6.91" transform="translate(-36.31 61.56) rotate(-67.66)"/><ellipse class="cls-5" cx="35.3" cy="53.44" rx="6.52" ry="6.91" transform="translate(-27.55 65.78) rotate(-67.66)"/><ellipse class="cls-7" cx="44" cy="60.11" rx="6.52" ry="6.91" transform="translate(-28.32 77.96) rotate(-67.66)"/><ellipse class="cls-8" cx="42.61" cy="48.69" rx="6.52" ry="6.91" transform="translate(-18.62 69.59) rotate(-67.66)"/><ellipse class="cls-8" cx="56.84" cy="29.26" rx="6.52" ry="6.91" transform="translate(8.17 70.71) rotate(-67.66)"/><ellipse class="cls-6" cx="49.75" cy="32.52" rx="6.52" ry="6.91" transform="translate(0.75 66.18) rotate(-67.66)"/><ellipse class="cls-4" cx="30.01" cy="44.59" rx="6.52" ry="6.91" transform="translate(-22.65 55.39) rotate(-67.66)"/><ellipse class="cls-5" cx="36.66" cy="40.68" rx="6.52" ry="6.91" transform="translate(-14.9 59.12) rotate(-67.66)"/><ellipse class="cls-4" cx="43.1" cy="36.44" rx="6.52" ry="6.91" transform="translate(-6.99 62.45) rotate(-67.66)"/><ellipse class="cls-6" cx="12.61" cy="42.75" rx="6.19" ry="6.84" transform="translate(-28.06 24.52) rotate(-49.42)"/><ellipse class="cls-4" cx="12.04" cy="37.25" rx="6.19" ry="6.84" transform="translate(-24.09 22.16) rotate(-49.42)"/><ellipse class="cls-4" cx="18.87" cy="39.07" rx="6.19" ry="6.84" transform="translate(-23.08 27.99) rotate(-49.42)"/><ellipse class="cls-5" cx="50.14" cy="20.68" rx="6.19" ry="6.84" transform="translate(1.82 45.31) rotate(-49.42)"/><ellipse class="cls-6" cx="43.45" cy="23.7" rx="6.19" ry="6.84" transform="translate(-2.82 41.29) rotate(-49.42)"/><ellipse class="cls-6" cx="24.91" cy="35.07" rx="6.19" ry="6.84" transform="translate(-17.93 31.17) rotate(-49.42)"/><ellipse class="cls-5" cx="31.16" cy="31.39" rx="6.19" ry="6.84" transform="translate(-12.95 34.64) rotate(-49.42)"/><ellipse class="cls-4" cx="37.2" cy="27.38" rx="6.19" ry="6.84" transform="matrix(0.65, -0.76, 0.76, 0.65, -7.8, 37.82)"/><ellipse class="cls-4" cx="13.15" cy="31.27" rx="6.19" ry="6.84" transform="translate(-19.16 20.92) rotate(-49.42)"/><ellipse class="cls-8" cx="38.88" cy="15.38" rx="6.19" ry="6.84" transform="translate(1.91 34.91) rotate(-49.42)"/><ellipse class="cls-4" cx="30.29" cy="20.44" rx="6.19" ry="6.84" transform="translate(-4.94 30.15) rotate(-49.42)"/><ellipse class="cls-8" cx="21.15" cy="25.81" rx="6.19" ry="6.84" transform="translate(-12.21 25.09) rotate(-49.42)"/><ellipse class="cls-6" cx="50.7" cy="61.73" rx="6.52" ry="6.91" transform="translate(-25.67 85.15) rotate(-67.66)"/><ellipse class="cls-6" cx="59.73" cy="61.73" rx="6.52" ry="6.91" transform="translate(-20.07 93.51) rotate(-67.66)"/></g></g></svg>