<svg xmlns="http://www.w3.org/2000/svg" viewBox="0 0 72.28 80.68"><defs><style>.cls-1{fill:#4ca487;}.cls-2{fill:#3d856d;}.cls-3{fill:#ea475a;}.cls-4{fill:#eb5b72;}.cls-5{fill:#da2228;}.cls-6{fill:#e43145;}.cls-7{fill:#dc2428;}.cls-8{fill:#eb425d;}</style></defs><g id="Layer_2" data-name="Layer 2"><g id="Layer_1-2" data-name="Layer 1"><path class="cls-1" d="M28.42,5.78a76.77,76.77,0,0,1,.42,18A74.14,74.14,0,0,1,25.11,41l11.71-5a42.91,42.91,0,0,0-1.46-16.42A41.38,41.38,0,0,0,28.42,5.78Z"/><path class="cls-1" d="M18.91,2.51A82.23,82.23,0,0,1,23.36,21.4a81.89,81.89,0,0,1-.06,19.08l11.09-8.37a46.08,46.08,0,0,0-5.18-16.92A42.59,42.59,0,0,0,18.91,2.51Z"/><path class="cls-2" d="M11.28,18.74A38.74,38.74,0,0,0,21,23,37,37,0,0,0,31.12,24.4l-5.29,6.4a22.23,22.23,0,0,1-8.59-4.57A25,25,0,0,1,11.28,18.74Z"/><path class="cls-2" d="M29,0a86.83,86.83,0,0,1,.51,20.46A84,84,0,0,1,25.33,39.9L38.6,34.3a49.13,49.13,0,0,0-1.69-18.63A47.82,47.82,0,0,0,29,0Z"/><path class="cls-1" d="M0,25.91a58.9,58.9,0,0,0,16.32,2.78,57.31,57.31,0,0,0,16-1.83q-3,6-6,12.06a33.62,33.62,0,0,1-14.71-3.71A37.6,37.6,0,0,1,0,25.91Z"/><path class="cls-2" d="M3.19,26.91a53.29,53.29,0,0,0,14.56,2.51,51.53,51.53,0,0,0,14.3-1.59L26.71,38.57a30,30,0,0,1-13.13-3.34A33.84,33.84,0,0,1,3.19,26.91Z"/><ellipse class="cls-3" cx="65.14" cy="55.07" rx="7.12" ry="7.84" transform="translate(-6.97 9.5) rotate(-7.92)"/><ellipse class="cls-4" cx="23.24" cy="65.05" rx="7.12" ry="7.84" transform="translate(-8.74 3.82) rotate(-7.92)"/><ellipse class="cls-5" cx="29.39" cy="59.15" rx="7.12" ry="7.84" transform="translate(-7.87 4.62) rotate(-7.92)"/><ellipse class="cls-5" cx="61.11" cy="59.95" rx="7.12" ry="7.84" transform="translate(-7.68 9) rotate(-7.92)"/><ellipse class="cls-5" cx="63.29" cy="42.66" rx="7.12" ry="7.84" transform="translate(-5.28 9.13) rotate(-7.92)"/><ellipse class="cls-6" cx="56.63" cy="64.25" rx="7.12" ry="7.84" transform="translate(-8.32 8.42) rotate(-7.92)"/><ellipse class="cls-6" cx="55.78" cy="48.65" rx="7.12" ry="7.84" transform="translate(-6.17 8.15) rotate(-7.92)"/><ellipse class="cls-4" cx="47.66" cy="72.86" rx="7.12" ry="7.84" transform="translate(-9.59 7.26) rotate(-7.92)"/><ellipse class="cls-6" cx="35.19" cy="69.02" rx="7.12" ry="7.84" transform="translate(-9.18 5.51) rotate(-7.92)"/><ellipse class="cls-5" cx="42.14" cy="62.35" rx="7.12" ry="7.84" transform="translate(-8.19 6.4) rotate(-7.92)"/><ellipse class="cls-7" cx="52.14" cy="68.55" rx="7.12" ry="7.84" transform="translate(-8.95 7.84) rotate(-7.92)"/><ellipse class="cls-8" cx="48.83" cy="55.33" rx="7.12" ry="7.84" transform="translate(-7.16 7.26) rotate(-7.92)"/><ellipse class="cls-8" cx="60.14" cy="29.64" rx="7.12" ry="7.84" transform="translate(-3.51 8.57) rotate(-7.92)"/><ellipse class="cls-6" cx="53.44" cy="34.86" rx="7.12" ry="7.84" transform="translate(-4.29 7.7) rotate(-7.92)"/><ellipse class="cls-4" cx="35.26" cy="52.9" rx="7.12" ry="7.84" transform="matrix(0.99, -0.14, 0.14, 0.99, -6.96, 5.37)"/><ellipse class="cls-5" cx="41.41" cy="47" rx="7.12" ry="7.84" transform="translate(-6.08 6.16) rotate(-7.92)"/><ellipse class="cls-8" cx="47.29" cy="40.76" rx="7.12" ry="7.84" transform="matrix(0.99, -0.14, 0.14, 0.99, -5.17, 6.91)"/><ellipse class="cls-6" cx="17.18" cy="54.06" rx="6.78" ry="7.74" transform="translate(-17.88 9.47) rotate(-20.54)"/><ellipse class="cls-4" cx="15.68" cy="47.68" rx="6.78" ry="7.74" transform="translate(-15.73 8.54) rotate(-20.54)"/><ellipse class="cls-5" cx="22.96" cy="48.52" rx="6.78" ry="7.74" transform="translate(-15.57 11.14) rotate(-20.54)"/><ellipse class="cls-5" cx="51.87" cy="20.78" rx="6.78" ry="7.74" transform="translate(-3.99 19.53) rotate(-20.54)"/><ellipse class="cls-6" cx="45.54" cy="25.64" rx="6.78" ry="7.74" transform="translate(-6.1 17.61) rotate(-20.54)"/><ellipse class="cls-6" cx="28.47" cy="42.63" rx="6.78" ry="7.74" transform="translate(-13.15 12.7) rotate(-20.54)"/><ellipse class="cls-5" cx="34.25" cy="37.08" rx="6.78" ry="7.74" transform="translate(-10.83 14.38) rotate(-20.54)"/><ellipse class="cls-4" cx="39.76" cy="31.19" rx="6.78" ry="7.74" transform="translate(-8.42 15.94) rotate(-20.54)"/><ellipse class="cls-4" cx="15.83" cy="40.4" rx="6.78" ry="7.74" transform="translate(-13.17 8.12) rotate(-20.54)"/><ellipse class="cls-8" cx="39.49" cy="16.69" rx="6.78" ry="7.74" transform="translate(-3.34 14.92) rotate(-20.54)"/><ellipse class="cls-7" cx="31.54" cy="24.31" rx="6.78" ry="7.74" transform="matrix(0.94, -0.35, 0.35, 0.94, -6.52, 12.62)"/><ellipse class="cls-8" cx="23.1" cy="32.41" rx="6.78" ry="7.74" transform="translate(-9.91 10.17) rotate(-20.54)"/></g></g></svg>