<svg xmlns="http://www.w3.org/2000/svg" viewBox="0 0 98.07 117.16"><defs><style>.cls-1{fill:#4ca487;}.cls-2{fill:#3d856d;}.cls-3{fill:#ea475a;}.cls-4{fill:#eb5b72;}.cls-5{fill:#da2228;}.cls-6{fill:#e43145;}.cls-7{fill:#dc2428;}.cls-8{fill:#eb425d;}</style></defs><g id="Layer_2" data-name="Layer 2"><g id="Layer_1-2" data-name="Layer 1"><path class="cls-1" d="M90.4,36.43a88.11,88.11,0,0,1-23.18,6,86.9,86.9,0,0,1-23.48-.41l10.5,16A49.9,49.9,0,0,0,75,51,53.19,53.19,0,0,0,90.4,36.43Z"/><path class="cls-1" d="M91.31,21.22A97.56,97.56,0,0,1,68.42,33.57a94.51,94.51,0,0,1-24.68,5.66L58.43,53.29A55.44,55.44,0,0,0,78.5,40.44,59.66,59.66,0,0,0,91.31,21.22Z"/><path class="cls-2" d="M67.66,14.7a65.25,65.25,0,0,0-.41,31.37l-10.12-6a36.49,36.49,0,0,1,2.92-14.22A34.76,34.76,0,0,1,67.66,14.7Z"/><path class="cls-2" d="M98.07,35.56A99.63,99.63,0,0,1,71.8,42.49a98.4,98.4,0,0,1-26.6-.41q5.92,9.09,11.86,18.16a56.8,56.8,0,0,0,23.5-8.15A60.57,60.57,0,0,0,98.07,35.56Z"/><path class="cls-1" d="M54.46,0a103.35,103.35,0,0,0,2.09,25.23,102.09,102.09,0,0,0,8,23.44L46.81,43.3a58.36,58.36,0,0,1-.33-23.11A56.8,56.8,0,0,1,54.46,0Z"/><path class="cls-2" d="M54.28,5.07A92.74,92.74,0,0,0,56.1,27.59a90.28,90.28,0,0,0,7,20.91L47.39,43.74a52.24,52.24,0,0,1-.25-20.63A50.86,50.86,0,0,1,54.28,5.07Z"/><ellipse class="cls-3" cx="39.45" cy="106.17" rx="10.36" ry="10.99"/><ellipse class="cls-4" cx="11.94" cy="46.54" rx="10.36" ry="10.99"/><ellipse class="cls-5" cx="21.72" cy="53.95" rx="10.36" ry="10.99"/><ellipse class="cls-5" cx="31.74" cy="101.63" rx="10.36" ry="10.99"/><ellipse class="cls-5" cx="54.85" cy="99.67" rx="10.36" ry="10.99"/><ellipse class="cls-6" cx="24.61" cy="96.22" rx="10.36" ry="10.99"/><ellipse class="cls-6" cx="44.49" cy="90.25" rx="10.36" ry="10.99"/><ellipse class="cls-4" cx="10.36" cy="85.4" rx="10.36" ry="10.99"/><ellipse class="cls-6" cx="10.97" cy="65.6" rx="10.36" ry="10.99"/><ellipse class="cls-5" cx="22.03" cy="73.99" rx="10.36" ry="10.99"/><ellipse class="cls-7" cx="17.49" cy="90.81" rx="10.36" ry="10.99"/><ellipse class="cls-8" cx="33.43" cy="81.86" rx="10.36" ry="10.99"/><ellipse class="cls-8" cx="70.59" cy="91.04" rx="10.36" ry="10.99"/><ellipse class="cls-6" cx="61.51" cy="82.59" rx="10.36" ry="10.99"/><ellipse class="cls-4" cx="31.84" cy="60.86" rx="10.36" ry="10.99"/><ellipse class="cls-5" cx="41.62" cy="68.27" rx="10.36" ry="10.99"/><ellipse class="cls-8" cx="51.74" cy="75.17" rx="10.36" ry="10.99"/><ellipse class="cls-6" cx="24.04" cy="34.18" rx="10.87" ry="9.85" transform="translate(-15.94 46.32) rotate(-71.77)"/><ellipse class="cls-4" cx="31.77" cy="30.01" rx="10.87" ry="9.85" transform="translate(-6.67 50.8) rotate(-71.77)"/><ellipse class="cls-5" cx="33.23" cy="41.15" rx="10.87" ry="9.85" transform="translate(-16.25 59.83) rotate(-71.77)"/><ellipse class="cls-5" cx="79.17" cy="76" rx="10.87" ry="9.85" transform="translate(-17.79 127.41) rotate(-71.77)"/><ellipse class="cls-6" cx="70.67" cy="68" rx="10.87" ry="9.85" transform="translate(-16.03 113.85) rotate(-71.77)"/><ellipse class="cls-6" cx="42.76" cy="47.6" rx="10.87" ry="9.85" transform="translate(-15.83 73.32) rotate(-71.77)"/><ellipse class="cls-5" cx="51.95" cy="54.57" rx="10.87" ry="9.85" transform="translate(-16.14 86.84) rotate(-71.77)"/><ellipse class="cls-4" cx="61.49" cy="61.03" rx="10.87" ry="9.85" transform="translate(-15.72 100.33) rotate(-71.77)"/><ellipse class="cls-4" cx="41.24" cy="28.03" rx="10.87" ry="9.85" transform="translate(1.71 58.42) rotate(-71.77)"/><ellipse class="cls-8" cx="80.14" cy="56.25" rx="10.87" ry="9.85" transform="translate(1.64 114.77) rotate(-71.77)"/><ellipse class="cls-7" cx="67.52" cy="46.67" rx="10.87" ry="9.85" transform="translate(2.06 96.2) rotate(-71.77)"/><ellipse class="cls-8" cx="54.1" cy="36.49" rx="10.87" ry="9.85" transform="translate(2.51 76.46) rotate(-71.77)"/></g></g></svg>