<svg xmlns="http://www.w3.org/2000/svg" viewBox="0 0 102.5 123.4"><defs><style>.cls-1{fill:#4aa488;}.cls-2{fill:#4ca487;}.cls-3{fill:#e43145;}.cls-4{fill:#e5e4e4;}</style></defs><g id="Layer_2" data-name="Layer 2"><g id="Layer_1-2" data-name="Layer 1"><path class="cls-1" d="M37.4,57.59c-6.65,3.33-16.86-5.19-20.78-8.45a52.39,52.39,0,0,1-12-14.46A3,3,0,0,1,6,32.88c3.21-1.71,9,5.94,10.86,4.84,2.48-1.47-7.31-15.52-3.27-30,.62-2.25,2-7.24,4.86-7.72,5.12-.88,11.9,13.49,17,26.49-.06-8.16.76-9.77,1.45-9.89,2.49-.43,10.47,17,5.64,32.77C41.53,52.68,40.43,56.07,37.4,57.59Z"/><path class="cls-2" d="M0,42.68A110,110,0,0,0,26.32,53.43,109.82,109.82,0,0,0,54,57.06L39,73A61.71,61.71,0,0,1,0,42.68Z"/><path class="cls-3" d="M30.38,42.83C20,52.34,12.49,59.23,11.58,69.55c-2.54,28.74,49.26,48,54.74,50,14.92,5.55,21.07,4,24.74,2,9.52-5.39,10.64-19.26,11.36-28.23,0,0,2.92-36.27-27.55-66.64a9.66,9.66,0,0,0-1.37-1.18C63.49,18.5,41.89,32.29,30.38,42.83Z"/><path class="cls-4" d="M16.19,68.5c-.45.08-.78.85-.69,1.43.15.87,1.32,1.65,2.85,1.38C17.28,69,16.62,68.44,16.19,68.5Z"/><path class="cls-4" d="M21.2,62c-.45.08-.78.85-.69,1.43.15.87,1.32,1.65,2.85,1.38C22.29,62.45,21.63,61.93,21.2,62Z"/><path class="cls-4" d="M27,54.29c-.46.08-.79.85-.69,1.43.14.87,1.32,1.65,2.84,1.38C28.11,54.75,27.45,54.23,27,54.29Z"/><path class="cls-4" d="M37,44.75c-.46.07-.79.84-.7,1.42.15.87,1.33,1.65,2.85,1.38C38.05,45.2,37.39,44.68,37,44.75Z"/><path class="cls-4" d="M44.66,37.51c-.45.07-.79.84-.69,1.42.15.87,1.32,1.65,2.84,1.38C45.75,38,45.09,37.44,44.66,37.51Z"/><path class="cls-4" d="M54.13,30.68c-.45.07-.79.84-.69,1.42.14.87,1.32,1.65,2.84,1.38C55.22,31.13,54.56,30.61,54.13,30.68Z"/><path class="cls-4" d="M65.22,26.3c-.46.08-.79.85-.7,1.43.15.87,1.33,1.64,2.85,1.38C66.3,26.76,65.64,26.24,65.22,26.3Z"/><path class="cls-4" d="M18.39,81.79c-.45.07-.79.84-.69,1.42.15.87,1.32,1.65,2.84,1.38C19.48,82.24,18.82,81.72,18.39,81.79Z"/><path class="cls-4" d="M23.4,75.28c-.45.07-.78.84-.69,1.42.15.87,1.32,1.65,2.85,1.38C24.49,75.73,23.83,75.21,23.4,75.28Z"/><path class="cls-4" d="M29.23,67.58c-.46.07-.79.84-.7,1.42.15.87,1.32,1.65,2.85,1.38C30.31,68,29.65,67.51,29.23,67.58Z"/><path class="cls-4" d="M39.16,58c-.45.07-.78.84-.69,1.42.15.88,1.32,1.65,2.85,1.38C40.25,58.48,39.59,58,39.16,58Z"/><path class="cls-4" d="M46.86,50.79c-.45.07-.79.84-.69,1.42.14.87,1.32,1.65,2.84,1.38C48,51.24,47.29,50.72,46.86,50.79Z"/><path class="cls-4" d="M56.33,44c-.45.07-.79.84-.69,1.42.14.87,1.32,1.65,2.84,1.38C57.42,44.41,56.76,43.89,56.33,44Z"/><path class="cls-4" d="M67.42,39.59c-.46.07-.79.84-.7,1.42.15.87,1.32,1.65,2.85,1.38C68.5,40,67.84,39.52,67.42,39.59Z"/><path class="cls-4" d="M31.12,84.42c-.45.08-.79.84-.69,1.42.15.88,1.32,1.65,2.84,1.39C32.21,84.88,31.55,84.35,31.12,84.42Z"/><path class="cls-4" d="M36.13,77.91c-.45.08-.78.84-.69,1.42.15.88,1.32,1.65,2.84,1.39C37.22,78.37,36.56,77.84,36.13,77.91Z"/><path class="cls-4" d="M42,70.21c-.46.08-.79.84-.7,1.42.15.88,1.32,1.65,2.85,1.39C43,70.67,42.38,70.14,42,70.21Z"/><path class="cls-4" d="M51.89,60.67c-.45.07-.78.84-.69,1.42.15.87,1.32,1.65,2.85,1.38C53,61.12,52.32,60.6,51.89,60.67Z"/><path class="cls-4" d="M59.59,53.43c-.45.07-.79.84-.69,1.42.14.87,1.32,1.65,2.84,1.38C60.68,53.88,60,53.36,59.59,53.43Z"/><path class="cls-4" d="M69.06,46.59c-.45.08-.79.85-.69,1.43.14.87,1.32,1.65,2.84,1.38C70.15,47.05,69.49,46.53,69.06,46.59Z"/><path class="cls-4" d="M80.14,42.22c-.45.08-.78.84-.69,1.42.15.88,1.32,1.65,2.85,1.39C81.23,42.68,80.57,42.15,80.14,42.22Z"/><path class="cls-4" d="M34.68,93.74c-.45.07-.79.84-.69,1.42.15.87,1.32,1.65,2.84,1.38C35.77,94.19,35.11,93.67,34.68,93.74Z"/><path class="cls-4" d="M39.69,87.23c-.45.07-.78.84-.69,1.42.15.87,1.32,1.65,2.85,1.38C40.78,87.68,40.12,87.16,39.69,87.23Z"/><path class="cls-4" d="M45.52,79.53c-.46.07-.79.84-.7,1.42.15.87,1.33,1.65,2.85,1.38C46.6,80,45.94,79.46,45.52,79.53Z"/><path class="cls-4" d="M55.46,70c-.46.07-.79.84-.7,1.42.15.88,1.32,1.65,2.85,1.38C56.54,70.43,55.88,69.91,55.46,70Z"/><path class="cls-4" d="M63.15,62.74c-.45.07-.79.84-.69,1.42.15.87,1.32,1.65,2.84,1.38C64.24,63.19,63.58,62.67,63.15,62.74Z"/><path class="cls-4" d="M72.62,55.91c-.45.07-.79.84-.69,1.42.14.87,1.32,1.65,2.84,1.38C73.71,56.36,73.05,55.84,72.62,55.91Z"/><path class="cls-4" d="M83.71,51.54c-.46.07-.79.84-.7,1.42.15.87,1.32,1.65,2.85,1.38C84.79,52,84.13,51.47,83.71,51.54Z"/><path class="cls-4" d="M39.36,100.68c-.45.07-.78.84-.69,1.42.15.88,1.32,1.65,2.84,1.39C40.45,101.13,39.79,100.61,39.36,100.68Z"/><path class="cls-4" d="M44.37,94.17c-.45.07-.78.84-.69,1.42.15.88,1.32,1.65,2.85,1.39C45.46,94.62,44.8,94.1,44.37,94.17Z"/><path class="cls-4" d="M50.2,86.47c-.46.08-.79.84-.7,1.42.15.88,1.33,1.65,2.85,1.39C51.28,86.93,50.62,86.4,50.2,86.47Z"/><path class="cls-4" d="M60.14,76.92c-.46.08-.79.85-.7,1.43.15.87,1.32,1.65,2.85,1.38C61.22,77.38,60.56,76.86,60.14,76.92Z"/><path class="cls-4" d="M67.83,69.68c-.45.08-.79.85-.69,1.43.15.87,1.32,1.64,2.84,1.38C68.92,70.14,68.26,69.62,67.83,69.68Z"/><path class="cls-4" d="M77.3,62.85c-.45.08-.79.85-.69,1.43.14.87,1.32,1.64,2.84,1.38C78.39,63.31,77.73,62.79,77.3,62.85Z"/><path class="cls-4" d="M88.39,58.48c-.46.07-.79.84-.7,1.42.15.88,1.33,1.65,2.85,1.39C89.47,58.93,88.81,58.41,88.39,58.48Z"/><path class="cls-4" d="M45.77,106.32c-.46.07-.79.84-.7,1.42.15.88,1.33,1.65,2.85,1.39C46.85,106.77,46.19,106.25,45.77,106.32Z"/><path class="cls-4" d="M52.69,103.54c-.45.07-.79.84-.69,1.42.14.87,1.32,1.65,2.84,1.38C53.78,104,53.12,103.47,52.69,103.54Z"/><path class="cls-4" d="M58.51,95.84c-.45.07-.78.84-.69,1.42.15.87,1.32,1.65,2.85,1.38C59.6,96.29,58.94,95.77,58.51,95.84Z"/><path class="cls-4" d="M68.45,86.29c-.45.07-.79.84-.69,1.42.15.88,1.32,1.65,2.84,1.39C69.54,86.74,68.88,86.22,68.45,86.29Z"/><path class="cls-4" d="M76.15,79.05c-.45.07-.79.84-.69,1.42.14.88,1.32,1.65,2.84,1.39C77.24,79.5,76.58,79,76.15,79.05Z"/><path class="cls-4" d="M87.68,67.88c-.45.08-.79.84-.69,1.43.14.87,1.32,1.64,2.84,1.38C88.77,68.34,88.11,67.81,87.68,67.88Z"/><path class="cls-4" d="M66.38,101.42c-.46.07-.79.84-.69,1.42.14.87,1.32,1.65,2.84,1.38C67.46,101.87,66.8,101.35,66.38,101.42Z"/><path class="cls-4" d="M72.63,96.6c-.45.07-.79.84-.69,1.42.14.87,1.32,1.65,2.84,1.38C73.72,97.05,73.06,96.53,72.63,96.6Z"/><path class="cls-4" d="M87.15,77.66c-.45.07-.79.84-.69,1.42.14.87,1.32,1.65,2.84,1.38C88.24,78.11,87.58,77.59,87.15,77.66Z"/><path class="cls-4" d="M94.85,70.42c-.46.07-.79.84-.7,1.42.15.87,1.33,1.65,2.85,1.38C95.93,70.87,95.27,70.35,94.85,70.42Z"/><path class="cls-4" d="M67.41,75c-.46.07-.79.84-.69,1.42.14.87,1.32,1.65,2.84,1.38C68.49,75.46,67.83,74.94,67.41,75Z"/><path class="cls-4" d="M78.49,70.63c-.45.08-.79.84-.69,1.43.15.87,1.32,1.64,2.84,1.38C79.58,71.09,78.92,70.56,78.49,70.63Z"/><path class="cls-4" d="M57.8,112.06c-.45.08-.78.84-.69,1.42.15.88,1.32,1.65,2.85,1.39C58.89,112.52,58.23,112,57.8,112.06Z"/><path class="cls-4" d="M64.9,109.72c-.45.07-.78.84-.69,1.42.15.87,1.32,1.65,2.85,1.38C66,110.17,65.33,109.65,64.9,109.72Z"/><path class="cls-4" d="M80,89.73c-.45.07-.79.84-.69,1.42.15.88,1.32,1.65,2.84,1.38C81,90.18,80.38,89.66,80,89.73Z"/><path class="cls-4" d="M88.36,85.23c-.45.07-.79.84-.69,1.42.15.88,1.32,1.65,2.84,1.38C89.45,85.68,88.79,85.16,88.36,85.23Z"/><path class="cls-4" d="M97.83,78.4c-.45.07-.79.84-.69,1.42.14.87,1.32,1.65,2.84,1.38C98.92,78.85,98.26,78.33,97.83,78.4Z"/><path class="cls-4" d="M58.84,86.74c-.45.08-.79.84-.69,1.42.15.88,1.32,1.65,2.84,1.39C59.93,87.2,59.27,86.67,58.84,86.74Z"/><path class="cls-4" d="M96.21,100.51c-.46.07-.79.84-.69,1.42.14.87,1.32,1.65,2.84,1.38C97.3,101,96.63,100.44,96.21,100.51Z"/><path class="cls-4" d="M73.39,115.08c-.45.07-.79.84-.69,1.42.15.87,1.32,1.65,2.84,1.38C74.48,115.53,73.82,115,73.39,115.08Z"/><path class="cls-4" d="M79.8,104.05c-.45.08-.79.85-.69,1.43.15.87,1.32,1.65,2.84,1.38C80.89,104.51,80.23,104,79.8,104.05Z"/><path class="cls-4" d="M87.5,96.81c-.45.08-.79.85-.69,1.43.14.87,1.32,1.64,2.84,1.38C88.59,97.27,87.92,96.75,87.5,96.81Z"/><path class="cls-4" d="M97,90c-.46.08-.79.85-.69,1.43.14.87,1.32,1.64,2.84,1.38C98.05,90.44,97.39,89.92,97,90Z"/><path class="cls-4" d="M74.38,32.72c-.46.08-.79.84-.7,1.42.15.88,1.33,1.65,2.85,1.39C75.46,33.18,74.8,32.65,74.38,32.72Z"/><path class="cls-4" d="M89.92,50.29c-.46.08-.79.85-.69,1.43.14.87,1.32,1.65,2.84,1.38C91,50.75,90.34,50.23,89.92,50.29Z"/><path class="cls-4" d="M25.91,89.59c-.45.08-.79.85-.69,1.43.14.87,1.32,1.64,2.84,1.38C27,90.05,26.34,89.53,25.91,89.59Z"/><path class="cls-4" d="M85.34,114.85c-.45.07-.78.84-.69,1.42.15.87,1.32,1.65,2.85,1.38C86.43,115.3,85.77,114.78,85.34,114.85Z"/><path class="cls-4" d="M90.65,106.22c-.46.07-.79.84-.69,1.42.14.87,1.32,1.65,2.84,1.38C91.73,106.67,91.07,106.15,90.65,106.22Z"/><path class="cls-4" d="M92.66,114.48c-.45.07-.79.84-.69,1.42.14.87,1.32,1.65,2.84,1.38C93.75,114.93,93.09,114.41,92.66,114.48Z"/><path class="cls-4" d="M94.28,63.13c-.45.08-.79.84-.69,1.42.15.88,1.32,1.65,2.84,1.39C95.37,63.59,94.71,63.06,94.28,63.13Z"/></g></g></svg>