<svg xmlns="http://www.w3.org/2000/svg" viewBox="0 0 72.51 79.24"><defs><style>.cls-1{fill:#4aa488;}.cls-2{fill:#3d856d;}.cls-3{fill:#e43145;}.cls-4{fill:#e5e4e4;}</style></defs><g id="Layer_2" data-name="Layer 2"><g id="Layer_1-2" data-name="Layer 1"><path class="cls-1" d="M37.23,26.36c-3.49-3.84.3-12.31,1.75-15.56A36.81,36.81,0,0,1,46.43,0a2.11,2.11,0,0,1,1.46.55c1.76,1.83-2.28,7.18-1.2,8.22C48.15,10.15,55.74.92,66.21.9c1.63,0,5.24,0,6.11,1.8C73.88,6,65.5,13.26,57.74,19.17c5.47-1.58,6.7-1.34,6.91-.89.76,1.58-9.45,10.25-21,10C41.32,28.2,38.83,28.11,37.23,26.36Z"/><path class="cls-2" d="M47.58,33.36c2.92,2.39,8.93-.7,11.23-1.88a26.37,26.37,0,0,0,7.55-5.83,1.56,1.56,0,0,0-.45-1c-1.4-1.2-5.13,1.94-5.93,1.19-1.06-1,5.35-6.88,5-14.48-.07-1.18-.2-3.81-1.55-4.37C60.94,6,56,12.32,52,18.19c.93-4,.71-4.92.38-5.06C51.19,12.64,45.3,20.4,46,28.74,46.08,30.47,46.24,32.27,47.58,33.36Z"/><path class="cls-3" d="M46,18.59c-8.54-5.29-14.73-9.13-22-7.76C3.77,14.64.55,54,.22,58.14c-.93,11.34,1.3,15.27,3.43,17.39C9.19,81,19,79.12,25.26,77.88c0,0,25.5-5,40.49-31.83a7.24,7.24,0,0,0,.54-1.17C69.16,36.65,55.5,24.47,46,18.59Z"/><path class="cls-4" d="M25.63,13.8c-.14-.3-.74-.38-1.12-.2a1.66,1.66,0,0,0-.4,2.22C25.52,14.64,25.76,14.08,25.63,13.8Z"/><path class="cls-4" d="M31.07,16c-.14-.3-.73-.38-1.11-.2a1.64,1.64,0,0,0-.4,2.22C31,16.82,31.2,16.27,31.07,16Z"/><path class="cls-4" d="M37.49,18.5c-.14-.3-.73-.38-1.11-.2a1.65,1.65,0,0,0-.4,2.22C37.39,19.34,37.62,18.78,37.49,18.5Z"/><path class="cls-4" d="M46,23.49c-.14-.3-.73-.38-1.11-.2a1.63,1.63,0,0,0-.4,2.22C45.88,24.32,46.11,23.77,46,23.49Z"/><path class="cls-4" d="M52.45,27.38c-.14-.3-.74-.38-1.12-.2a1.66,1.66,0,0,0-.4,2.22C52.34,28.22,52.58,27.66,52.45,27.38Z"/><path class="cls-4" d="M59,32.57c-.13-.3-.73-.38-1.11-.2a1.64,1.64,0,0,0-.4,2.22C58.87,33.4,59.1,32.85,59,32.57Z"/><path class="cls-4" d="M64.12,39.34c-.13-.29-.73-.37-1.11-.2a1.66,1.66,0,0,0-.4,2.23C64,40.18,64.25,39.62,64.12,39.34Z"/><path class="cls-4" d="M16.92,17.88c-.14-.3-.73-.38-1.11-.2a1.64,1.64,0,0,0-.4,2.22C16.82,18.72,17.05,18.16,16.92,17.88Z"/><path class="cls-4" d="M22.36,20.07c-.13-.3-.73-.38-1.11-.2a1.65,1.65,0,0,0-.4,2.22C22.26,20.9,22.49,20.35,22.36,20.07Z"/><path class="cls-4" d="M28.78,22.58c-.13-.3-.73-.38-1.11-.2a1.66,1.66,0,0,0-.4,2.22C28.68,23.42,28.91,22.86,28.78,22.58Z"/><path class="cls-4" d="M37.27,27.57c-.14-.3-.73-.38-1.11-.2a1.65,1.65,0,0,0-.4,2.22C37.17,28.4,37.4,27.85,37.27,27.57Z"/><path class="cls-4" d="M43.74,31.46c-.14-.3-.73-.38-1.11-.2a1.64,1.64,0,0,0-.4,2.22C43.64,32.3,43.87,31.74,43.74,31.46Z"/><path class="cls-4" d="M50.27,36.65c-.14-.3-.73-.38-1.11-.2a1.65,1.65,0,0,0-.41,2.22C50.17,37.48,50.4,36.93,50.27,36.65Z"/><path class="cls-4" d="M55.42,43.43c-.14-.3-.73-.38-1.11-.21a1.66,1.66,0,0,0-.41,2.23C55.32,44.26,55.55,43.7,55.42,43.43Z"/><path class="cls-4" d="M17.57,27.14c-.14-.29-.73-.37-1.11-.2a1.65,1.65,0,0,0-.4,2.23C17.47,28,17.7,27.42,17.57,27.14Z"/><path class="cls-4" d="M23,29.33c-.13-.3-.73-.38-1.11-.2a1.65,1.65,0,0,0-.4,2.22C22.91,30.17,23.14,29.61,23,29.33Z"/><path class="cls-4" d="M29.43,31.84c-.13-.29-.73-.37-1.11-.2a1.66,1.66,0,0,0-.4,2.23C29.33,32.68,29.56,32.12,29.43,31.84Z"/><path class="cls-4" d="M37.92,36.83c-.14-.3-.73-.38-1.11-.2a1.65,1.65,0,0,0-.4,2.22C37.82,37.67,38.05,37.11,37.92,36.83Z"/><path class="cls-4" d="M44.39,40.72c-.14-.29-.73-.38-1.11-.2a1.65,1.65,0,0,0-.4,2.23C44.29,41.56,44.52,41,44.39,40.72Z"/><path class="cls-4" d="M50.92,45.91c-.14-.3-.73-.38-1.12-.2a1.66,1.66,0,0,0-.4,2.22C50.82,46.75,51.05,46.19,50.92,45.91Z"/><path class="cls-4" d="M56.07,52.69c-.14-.3-.73-.38-1.11-.2a1.64,1.64,0,0,0-.41,2.22C56,53.52,56.2,53,56.07,52.69Z"/><path class="cls-4" d="M11.85,31.39c-.13-.29-.73-.37-1.11-.2a1.66,1.66,0,0,0-.4,2.23C11.75,32.23,12,31.67,11.85,31.39Z"/><path class="cls-4" d="M17.3,33.58c-.14-.3-.73-.38-1.11-.2a1.64,1.64,0,0,0-.4,2.22C17.2,34.42,17.43,33.86,17.3,33.58Z"/><path class="cls-4" d="M23.72,36.09c-.14-.29-.73-.37-1.11-.2a1.65,1.65,0,0,0-.4,2.23C23.62,36.93,23.85,36.37,23.72,36.09Z"/><path class="cls-4" d="M32.21,41.08c-.14-.3-.73-.38-1.11-.2a1.65,1.65,0,0,0-.41,2.22C32.11,41.92,32.34,41.36,32.21,41.08Z"/><path class="cls-4" d="M38.67,45c-.13-.29-.73-.38-1.11-.2a1.66,1.66,0,0,0-.4,2.23C38.57,45.81,38.8,45.25,38.67,45Z"/><path class="cls-4" d="M45.2,50.16c-.14-.3-.73-.38-1.11-.2a1.65,1.65,0,0,0-.4,2.22C45.1,51,45.33,50.44,45.2,50.16Z"/><path class="cls-4" d="M50.35,56.94c-.14-.3-.73-.38-1.11-.2a1.64,1.64,0,0,0-.4,2.22C50.25,57.77,50.48,57.22,50.35,56.94Z"/><path class="cls-4" d="M8,36c-.13-.3-.73-.38-1.11-.2A1.64,1.64,0,0,0,6.47,38C7.88,36.79,8.11,36.24,8,36Z"/><path class="cls-4" d="M13.43,38.14c-.14-.3-.73-.38-1.11-.2a1.64,1.64,0,0,0-.4,2.22C13.33,39,13.56,38.42,13.43,38.14Z"/><path class="cls-4" d="M19.85,40.66c-.14-.3-.73-.38-1.11-.2a1.63,1.63,0,0,0-.4,2.22C19.75,41.49,20,40.94,19.85,40.66Z"/><path class="cls-4" d="M28.34,45.64c-.14-.29-.73-.38-1.11-.2a1.66,1.66,0,0,0-.41,2.23C28.24,46.48,28.47,45.92,28.34,45.64Z"/><path class="cls-4" d="M34.8,49.53c-.13-.29-.73-.37-1.11-.2a1.66,1.66,0,0,0-.4,2.23C34.7,50.37,34.93,49.81,34.8,49.53Z"/><path class="cls-4" d="M41.33,54.72c-.14-.29-.73-.38-1.11-.2a1.66,1.66,0,0,0-.4,2.23C41.23,55.56,41.46,55,41.33,54.72Z"/><path class="cls-4" d="M46.48,61.5c-.14-.3-.73-.38-1.11-.2a1.65,1.65,0,0,0-.4,2.22C46.38,62.33,46.61,61.78,46.48,61.5Z"/><path class="cls-4" d="M5.35,41.45c-.14-.3-.74-.38-1.12-.2a1.66,1.66,0,0,0-.4,2.22C5.24,42.28,5.47,41.73,5.35,41.45Z"/><path class="cls-4" d="M8.6,45.67c-.14-.3-.73-.38-1.11-.2a1.64,1.64,0,0,0-.4,2.22C8.5,46.51,8.73,46,8.6,45.67Z"/><path class="cls-4" d="M15,48.19c-.14-.3-.73-.38-1.11-.2a1.63,1.63,0,0,0-.4,2.22C14.92,49,15.15,48.47,15,48.19Z"/><path class="cls-4" d="M23.51,53.17c-.14-.29-.74-.38-1.12-.2A1.67,1.67,0,0,0,22,55.2C23.4,54,23.63,53.45,23.51,53.17Z"/><path class="cls-4" d="M30,57.06c-.14-.29-.73-.37-1.11-.2a1.66,1.66,0,0,0-.4,2.23C29.87,57.9,30.1,57.34,30,57.06Z"/><path class="cls-4" d="M39.88,62.83c-.14-.29-.73-.38-1.11-.2a1.66,1.66,0,0,0-.4,2.23C39.78,63.67,40,63.11,39.88,62.83Z"/><path class="cls-4" d="M12.7,54.67c-.13-.3-.73-.38-1.11-.2a1.66,1.66,0,0,0-.4,2.22C12.6,55.51,12.83,55,12.7,54.67Z"/><path class="cls-4" d="M17.23,58c-.14-.3-.73-.38-1.11-.2a1.64,1.64,0,0,0-.4,2.22C17.13,58.87,17.36,58.32,17.23,58Z"/><path class="cls-4" d="M33.06,64.36c-.14-.3-.73-.38-1.11-.2a1.65,1.65,0,0,0-.41,2.22C33,65.19,33.19,64.64,33.06,64.36Z"/><path class="cls-4" d="M39.52,68.25c-.13-.3-.73-.38-1.11-.2a1.66,1.66,0,0,0-.4,2.22C39.42,69.09,39.65,68.53,39.52,68.25Z"/><path class="cls-4" d="M31.06,50.27c-.14-.3-.73-.38-1.11-.2a1.65,1.65,0,0,0-.4,2.22C31,51.11,31.19,50.55,31.06,50.27Z"/><path class="cls-4" d="M36.21,57.05c-.13-.3-.73-.38-1.11-.2a1.64,1.64,0,0,0-.4,2.22C36.11,57.88,36.34,57.33,36.21,57.05Z"/><path class="cls-4" d="M3.73,50.84c-.14-.3-.73-.38-1.12-.2a1.65,1.65,0,0,0-.4,2.22C3.62,51.67,3.86,51.12,3.73,50.84Z"/><path class="cls-4" d="M6.71,55.27c-.14-.3-.73-.38-1.11-.21a1.66,1.66,0,0,0-.4,2.23C6.61,56.1,6.84,55.54,6.71,55.27Z"/><path class="cls-4" d="M23.37,61.75c-.14-.3-.74-.38-1.12-.21a1.67,1.67,0,0,0-.4,2.23C23.26,62.58,23.5,62,23.37,61.75Z"/><path class="cls-4" d="M28.09,66.66c-.14-.3-.73-.38-1.11-.2a1.64,1.64,0,0,0-.41,2.22C28,67.49,28.22,66.94,28.09,66.66Z"/><path class="cls-4" d="M34.61,71.85c-.13-.3-.73-.38-1.11-.2a1.64,1.64,0,0,0-.4,2.22C34.51,72.68,34.74,72.13,34.61,71.85Z"/><path class="cls-4" d="M21.34,46.65c-.14-.29-.74-.38-1.12-.2a1.67,1.67,0,0,0-.4,2.23C21.23,47.49,21.47,46.93,21.34,46.65Z"/><path class="cls-4" d="M19.1,75c-.14-.3-.73-.38-1.11-.2a1.64,1.64,0,0,0-.4,2.22C19,75.84,19.23,75.29,19.1,75Z"/><path class="cls-4" d="M4.67,62.14c-.14-.3-.73-.38-1.11-.2a1.64,1.64,0,0,0-.41,2.22C4.57,63,4.8,62.42,4.67,62.14Z"/><path class="cls-4" d="M13.49,64.41c-.14-.29-.73-.38-1.11-.2A1.66,1.66,0,0,0,12,66.44C13.39,65.25,13.62,64.69,13.49,64.41Z"/><path class="cls-4" d="M20,68.3c-.13-.29-.73-.37-1.11-.2a1.66,1.66,0,0,0-.4,2.23C19.85,69.14,20.08,68.58,20,68.3Z"/><path class="cls-4" d="M26.48,73.49c-.14-.29-.73-.38-1.11-.2a1.66,1.66,0,0,0-.4,2.23C26.38,74.33,26.61,73.77,26.48,73.49Z"/><path class="cls-4" d="M61.48,46.88c-.14-.29-.73-.38-1.11-.2a1.66,1.66,0,0,0-.4,2.23C61.38,47.72,61.61,47.16,61.48,46.88Z"/><path class="cls-4" d="M52.41,61c-.14-.3-.73-.38-1.11-.2A1.65,1.65,0,0,0,50.89,63C52.31,61.8,52.54,61.25,52.41,61Z"/><path class="cls-4" d="M13,24.56c-.13-.3-.73-.38-1.11-.2a1.66,1.66,0,0,0-.4,2.22C12.9,25.4,13.13,24.84,13,24.56Z"/><path class="cls-4" d="M7.14,70.31C7,70,6.41,69.93,6,70.11a1.64,1.64,0,0,0-.4,2.22C7,71.15,7.27,70.59,7.14,70.31Z"/><path class="cls-4" d="M14.1,72.29c-.14-.3-.73-.38-1.11-.2a1.64,1.64,0,0,0-.41,2.22C14,73.12,14.23,72.57,14.1,72.29Z"/><path class="cls-4" d="M8.81,75.27c-.14-.3-.73-.38-1.11-.2a1.65,1.65,0,0,0-.41,2.22C8.71,76.11,8.94,75.55,8.81,75.27Z"/><path class="cls-4" d="M44.42,66.45c-.13-.29-.73-.38-1.11-.2a1.67,1.67,0,0,0-.4,2.23C44.32,67.29,44.55,66.73,44.42,66.45Z"/></g></g></svg>